<!-- Generated by IcoMoon.io -->
<svg version="1.1" xmlns="http://www.w3.org/2000/svg" width="1024" height="1024" viewBox="0 0 1024 1024">
<title></title>
<g id="icomoon-ignore">
</g>
<path fill="#000" d="M660 173q-17-13-37-23.5t-44-16.5q-4-6-9.5-10.5t-11.5-8.5q-15-31-30-57l-15-26-15.5 26t-30.5 57q-5 3-9.5 7t-8.5 9q-28 5-51.5 16t-43.5 27q-72-12-137 15t-110 79.5-62.5 123.5 5.5 148q18 61 89.5 93.5t118.5 6.5q-44 0-73-21.5t-43.5-54-14-70.5 13.5-71q18-43 48.5-66.5t72.5-23.5q-14 53-19.5 115t-5.5 129h141q-3 18-4 37.5t-1 39.5q-3 22 7.5 87.5l10.5 65.5 31.5-54t39.5-79q9 36 27.5 87l18.5 51 18-50.5t27-86.5q9 25 40 78.5l31 53.5 10.5-67t7.5-87q0-20-1.5-39t-3.5-37h140q0-67-6-129t-20-115q44-1 76 22.5t50 67.5q13 33 13.5 71t-14 70.5-43.5 54-73 21.5q47 26 118.5-6.5t89.5-93.5q23-77 5-148.5t-63-124-111-79.5-139-14v0zM384 360q13 15 32 24.5t46 14.5v0 0q0 20-14.5 34.5t-34.5 14.5-34-14.5-14-34.5q0-12 5-22t14-17v0zM658 399q0 20-14.5 34.5t-34.5 14.5-34.5-14.5-14.5-34.5v-0.5t1-1.5q24-5 42-15.5t30-24.5q3 1 5.5 3t4.5 4v0 0 0q7 7 11 16t4 19v0zM228 897q-17 66 43.5 80t76.5-48q4-12 3-46.5t-3.5-71-5-64.5l-2.5-28-16 23t-36.5 53.5-38 60-21.5 41.5v0zM671 719l-2.5 28t-5 64.5-3.5 71 2 46.5q17 62 77.5 48t43.5-80q-4-12-22-41.5t-38-60-36-53.5l-16-23zM559 766l-16 67t-14 86q5 47 51 43.5t40-53.5q-2-19-31.5-81l-29.5-62zM394 909q-5 50 41 53.5t51-43.5q2-19-14-86l-16-67-30 62t-32 81v0z"></path>
</svg>
