<?xml version="1.0" encoding="UTF-8" standalone="no"?><svg width="132.997" height="106.12" xmlns="http://www.w3.org/2000/svg"><style><![CDATA[@import url("https://fonts.googleapis.com/css?family=IM+Fell+Great+Primer");]]></style><rect x="0" y="0" width="132.997" height="106.12" id="background" fill="#FFF2C8"/><g id="map" transform="translate(71.723 35.834)"><g id="waterbody"><polygon points="25.633,-92.498 35.003,-91.118 68.56,-81.972 76.4,-77.936 88.983,-65.802 91.063,-53.577 91.795,-47.56 91.873,-43.675 91.527,-40.565 90.758,-38.229 89.643,-36.214 88.182,-34.521 86.374,-33.15 84.221,-32.1 81.945,-31.236 79.547,-30.556 77.027,-30.061 74.385,-29.75 71.621,-29.625 68.735,-29.685 65.727,-29.929 62.597,-30.358 59.725,-30.656 57.11,-30.823 54.754,-30.858 52.655,-30.762 50.814,-30.535 49.231,-30.177 47.905,-29.687 46.838,-29.067 45.839,-28.377 44.909,-27.619 44.048,-26.793 43.256,-25.898 42.532,-24.935 41.878,-23.903 41.292,-22.803 40.775,-21.635 40.072,-20.535 39.183,-19.504 38.108,-18.542 36.847,-17.649 35.151,-16.748 33.017,-15.838 29.696,-14.688 22.933,-12.603 12.647,-16.164 6.034,-21.905 -9.259,-22.053 -16.51,-29.861 -14.577,-37.654 -13.701,-41.694 -13.239,-44.579 -12.974,-47.175 -12.908,-49.482 -12.968,-51.789 -13.155,-54.095 -13.469,-56.4 -13.909,-58.705 -14.21,-60.994 -14.37,-63.268 -14.39,-65.525 -14.27,-67.767 -13.925,-70.264 -13.354,-73.019 -12.304,-76.846 -10.007,-84.196 -1.825,-91.503" fill="#779988" stroke="#4C5950" stroke-width="0.214"/><path d="M -7.941,-83.316 C -6.554911512696439,-84.71438967265352 -1.9818122150967432,-88.37660163005411 1.5289501605557447,-89.2093360703191 C 6.404056393164499,-90.36568572474117 17.266567987634755,-90.76785389282189 23.03060839516117,-90.66286929962455 C 26.570262252723932,-90.59839905062864 34.15679136427046,-89.44622757803158 38.1483694770674,-88.54236037822521 C 44.944556208098916,-87.0034075890402 58.06801672233149,-83.44316440104217 64.32540119949674,-81.31192897379808 C 68.03636188698158,-80.04799339254372 74.03942593174253,-77.17934059977182 76.16930764549011,-75.59260945636574 C 79.19263245895267,-73.34027609569631 84.31472288042768,-68.02039741589628 86.14727099659669,-65.05495085575663 C 87.89497818632007,-62.226794679027584 88.86023571446633,-56.47272703941505 89.39634372507074,-54.188495535998634 C 89.86321618093655,-52.19926062312398 90.09894923657508,-48.95529411033947 90.20465546037465,-47.767379638185744 C 90.30931106199233,-46.591271938138505 90.33804700294955,-44.63579495626035 90.31499031640509,-43.86485004555034 C 90.2903944381269,-43.0424392821283 90.1213231459863,-41.60666834902807 90.00226833370266,-41.000174602017935 C 89.8848902738357,-40.40222263367667 89.53147183193248,-39.33929158393327 89.33534807301633,-38.8743176720519 C 89.13336089012076,-38.395442643856 88.64056462377118,-37.51619487381318 88.3654111613811,-37.11948270210961 C 88.08963587722356,-36.721873997025575 87.45644647040415,-35.987489462516066 87.10556838132587,-35.65945445998383 C 86.75519039157582,-35.33188699899809 85.96169431140943,-34.73407036756985 85.52838811315561,-34.467157316807324 C 85.08591980060287,-34.194600479067326 84.11077242434426,-33.72293445113697 83.59707267855069,-33.498249992129935 C 83.0842348224433,-33.27394251056829 82.0113198104901,-32.86910112722176 81.45507190157127,-32.68555073269161 C 80.90278883387627,-32.50330865439819 79.76384507145963,-32.17999457786742 79.17896352752788,-32.04036464147087 C 78.59465929389101,-31.900872527511353 77.3923576523655,-31.66455679480627 76.776184112572,-31.568550527841968 C 76.15990712103155,-31.472528142016024 74.89340647812266,-31.323717106251717 74.2448783621686,-31.271582687982836 C 73.59625286917819,-31.21944044168766 72.26498201109453,-31.158974087451003 71.5838874664668,-31.15114786099545 C 70.90303397666905,-31.143324404419207 69.50672004115975,-31.171960790220407 68.79266447608363,-31.208933147044373 C 68.07665300669444,-31.246006776648375 66.61310208052166,-31.36980889018201 65.8657943294238,-31.44721918955219 C 65.10304018723885,-31.526229512147722 63.58522141949907,-31.7399669752151 62.82463811687329,-31.827134559296432 C 62.073832376283576,-31.913181573864932 60.6192661169002,-32.06949022534955 59.91475329614521,-32.129245560429524 C 59.21634439491734,-32.188483173552 57.87893201580484,-32.27456097531696 57.240524306700756,-32.30076766010218 C 56.60300612837449,-32.32693782958164 55.38749629254118,-32.346246572695165 54.810377766765136,-32.33878056230411 C 54.233532249776985,-32.33131808374639 53.137566251570924,-32.282897575175525 52.61974676549077,-32.24099003800793 C 52.10231758027255,-32.19911408819522 51.12263003715292,-32.08092598420187 50.66242379778378,-32.00308339408734 C 50.20272398080354,-31.925326463894542 49.335052950365586,-31.733493060536354 48.930518651432685,-31.616967486042334 C 48.5370226496793,-31.50362147858051 47.775156069351304,-31.234614584178964 47.41591541644978,-31.067930910768887 C 47.082538197708175,-30.913247583583424 46.35166279338577,-30.505320506307278 45.966631381005875,-30.241756707924925 C 45.510171855640536,-29.92929854881142 44.50651000183447,-29.187721029143937 43.99279698569774,-28.724719248257916 C 43.49639853404562,-28.27732282277427 42.54994063064448,-27.30125671732806 42.11415291153499,-26.76957606199924 C 41.687167010834195,-26.24863402176766 40.95138903067417,-25.1483103259826 40.61070987494723,-24.598420565271887 C 40.27174552275812,-24.051298666613274 39.74258476352905,-22.918734900996252 39.415687740684234,-22.413987109340606 C 39.09889470319466,-21.924840451799298 38.40832747815491,-20.990487927653366 38.00831164367425,-20.580168123532292 C 37.568033377779415,-20.128548771875185 36.60824613963768,-19.37599474909258 36.12962909374221,-19.043283191846548 C 35.726613288766515,-18.763125982198165 34.867855659313456,-18.30478632383825 34.43610787149361,-18.096943821274703 C 34.00471263140326,-17.889271034467527 32.93829871808967,-17.437586419948506 32.302754174100535,-17.20103342766736 C 31.65347138469538,-16.959366988826748 29.92810109133479,-16.260083707314326 28.798239741104148,-15.99849991369405 C 27.548951483366483,-15.709266582792363 24.39381962624124,-14.699329324132728 22.491914579753566,-14.929642659972354 C 20.33444214388337,-15.190904216959618 15.985683923047795,-16.742992627593566 13.862307045667103,-17.80718352243409 C 11.857848403884569,-18.811775151170632 9.124017380363824,-21.538034527071716 7.792021501020685,-22.296913414476347 C 7.084679946767795,-22.69990758287513 5.194142712533218,-23.213737439366856 4.093985265655435,-23.372495907545467 C 1.5487354793388253,-23.739788751269185 -4.417388044536561,-23.324552496949995 -7.401051612192869,-24.489353252269318 C -9.734600890451386,-25.400354073995842 -12.95067851281063,-28.702522937775505 -13.71606189448409,-30.325409972417333 C -14.493312913537968,-31.973460650924018 -13.431867551198149,-35.426360108892 -13.242588472029116,-36.875504636276176 C -13.072209266139124,-38.17994934764889 -12.46791867657819,-40.32727675473776 -12.293508960288287,-41.2166548398079 C -12.123660783127164,-42.08277199067307 -11.877677242376567,-43.626999073733664 -11.786383459425323,-44.30121951689881 C -11.690406676059249,-45.01002473147951 -11.554708838396342,-46.35893282136538 -11.51079544180848,-46.9971301168883 C -11.46642442732604,-47.641978013945035 -11.43058093792075,-48.89719866868704 -11.428259255360413,-49.50587040374668 C -11.42593625053039,-50.11488879609621 -11.460103260482276,-51.31729507667901 -11.492056841199268,-51.909798515338004 C -11.524350659356244,-52.508610851110475 -11.622170809327685,-53.69674185485096 -11.68601394418037,-54.285320344237554 C -11.74940698261661,-54.86974933392492 -11.912108881625628,-56.0305280207915 -12.001623944019205,-56.60756651045467 C -12.092757516790531,-57.195038359140405 -12.3174473025191,-58.34936236335976 -12.405555586730259,-58.92368188434559 C -12.489127622298911,-59.46843260631596 -12.64571853599342,-60.57680429136734 -12.697279536307109,-61.14208434962176 C -12.746167450066299,-61.67805848840115 -12.829682231107585,-62.921904413350674 -12.834750567660334,-63.62908640222987 C -12.841302012213886,-64.54320556957244 -12.803715981349724,-66.40540799099125 -12.741775290836946,-67.35055055102602 C -12.69407244199053,-68.07844028403365 -12.51785229153131,-69.4275556894145 -12.414065062664125,-70.04825564090049 C -12.310916143108393,-70.6651381809094 -12.019417674938584,-72.05485314314465 -11.826488597400203,-72.82442640658978 C -11.628996959945772,-73.61219922900787 -11.150312914388927,-75.66665170141782 -10.702118701922132,-76.87702486785717 C -10.225523457733482,-78.16409658536912 -9.441737366432298,-81.80366819639727 -7.94133953069508,-83.31648553442861" fill="none" stroke="#4C5950" stroke-width="0.107"/><path d="M -5.299,-81.719 C -3.8322630323251707,-82.91155999249725 0.7543951316765303,-85.72307334243375 4.0002691438194,-86.45624384743998 C 7.924437456564718,-87.34262589825948 17.04404459404281,-88.02803640731894 22.09690269005569,-87.90686766384718 C 26.143696467769526,-87.80982458291803 34.76140021455982,-86.58183997794211 39.27611173292785,-85.61032072032849 C 45.10803781976315,-84.35535050145882 56.22603717245188,-81.28941419509962 61.45157742891937,-79.43814840451627 C 65.44255035241747,-78.0242560064485 72.07199215463528,-74.88189608784957 74.53880780727275,-73.11771331090765 C 77.35051001105417,-71.106879385601 81.65758462934424,-66.27794983131285 83.24740824456606,-63.85051043368039 C 84.85872623544263,-61.3902521158908 86.25935849851238,-56.379521626532686 86.86284642611794,-54.30062153110352 C 87.41640735822122,-52.39371035370624 87.72580510835184,-49.17123108888879 87.86313808059413,-47.950206951775975 C 87.9952039190344,-46.77601277399972 88.02075946658128,-44.85447068925763 88.00796317964434,-44.11941615093317 C 87.99477545490466,-43.36187632958936 87.8451472418427,-42.08844165983422 87.75218400853821,-41.5766944936571 C 87.65938956037536,-41.06587646166406 87.37674336105596,-40.18504515569486 87.22582300836974,-39.81386435399788 C 87.0708455445389,-39.43270529727809 86.6880139365903,-38.750029787972245 86.48011576700223,-38.44810844609939 C 86.27171975665713,-38.1454641120535 85.78863066887168,-37.585763768437765 85.51937710024013,-37.3356682282851 C 85.2624276772589,-37.09700136470733 84.64477364431035,-36.61544532721039 84.2753391511749,-36.400206903127135 C 83.91632879435376,-36.19104174700995 82.95670983587486,-35.720085785820146 82.34941266873984,-35.48879642472037 C 81.53505333337847,-35.178647356727936 79.815376122183,-34.61203909624558 78.91306928181858,-34.357984348428026 C 78.22783211682382,-34.165048035235884 76.96977612951314,-33.91038277084357 76.40803940400876,-33.81593524387016 C 75.81780042632047,-33.71669549465148 74.63293931858249,-33.586298782708084 74.04251097992793,-33.539073699172604 C 73.43408704377688,-33.49040924774198 72.18007727099605,-33.433381550602945 71.53591852549881,-33.42624135484222 C 70.91715354956547,-33.419382637035575 69.59049481564239,-33.442998174286444 68.88423385351203,-33.48189663105367 C 68.22860544106157,-33.51800641882977 66.61086247738322,-33.659247701392204 65.64823918369004,-33.75051475039539 C 64.4364701678039,-33.86540349542992 61.737004231656016,-34.19550408361673 60.239676704077006,-34.30149369060683 C 58.844394219911266,-34.40025995210475 56.20629777832112,-34.51643619713059 54.96655545198184,-34.50662685002856 C 53.719549751179024,-34.496760032144316 51.609692137660026,-34.32441096753128 50.74874165038692,-34.22639754015166 C 50.04916628436982,-34.146755585884506 48.882054041072394,-33.8923140197678 48.41387878507383,-33.76064864555793 C 47.87216822704787,-33.60830286815498 46.84435233804978,-33.22060036458639 46.3635085146471,-32.993134238819714 C 45.90787293601829,-32.7775930281648 44.98299087619438,-32.239994201922684 44.521371548025975,-31.919274175019034 C 44.00451027642365,-31.56017361137609 42.94524775871497,-30.733078420440457 42.41988194126983,-30.25321425815094 C 41.91982972656898,-29.796471300880988 40.96048185798937,-28.799715076267862 40.51285570005424,-28.25793376127569 C 40.0432606391151,-27.68956253202705 39.220900468064514,-26.49982984082921 38.831623564845856,-25.910189823032095 C 38.453005791218004,-25.336695251598886 37.85704089048489,-24.22573473481672 37.538322480030125,-23.752390775572362 C 37.25105564694316,-23.325757058558796 36.665162394887865,-22.523386740001946 36.32767745939221,-22.19145966998331 C 35.996542037734024,-21.865777546931024 35.13839033114576,-21.176279965180168 34.59665294998804,-20.859166085006727 C 33.95195778206166,-20.4817843621629 32.41069196360684,-19.729086840642417 31.515107606682655,-19.374351689845334 C 30.747515915619527,-19.070313603232215 28.962609099007345,-18.39802889245554 27.91122626910468,-18.211111969891387 C 26.759422948865403,-18.00634209359597 23.9574382528892,-17.512545777680078 22.357969893116852,-17.74637760444554 C 20.560281154150964,-18.00918795591003 16.96261439318187,-19.250376094271864 15.195034379777685,-20.070136164283536 C 13.410907529477974,-20.897570249654674 10.890745112636123,-22.902658112665225 9.854756103661538,-23.5450601725263 C 9.339816301210922,-23.864367025140645 8.395152962631817,-24.426636448422204 7.934792732408714,-24.572108819355783 C 7.1965694608240804,-24.805385029039915 4.903947613609532,-25.301559763745207 3.3640430137976387,-25.59610489846738 C 1.2324486463469029,-26.003825448305662 -3.4014172360030157,-26.25657956928088 -5.604578522693744,-27.161851022135643 C -7.3789134319368905,-27.89091918017057 -9.954140967011577,-30.175897275511502 -10.629903982341812,-31.346169954937324 C -11.306098983386217,-32.5171907384584 -10.995058867657052,-35.21812581291132 -10.934232901480922,-36.39163834221977 C -10.873474881964698,-37.563839979786785 -10.319595652518666,-39.646118626844064 -10.150484027337912,-40.59559679295042 C -9.989498279807139,-41.49945217350988 -9.702300622227984,-43.14184377875921 -9.599833123799797,-43.883633362734734 C -9.498937547931309,-44.61404337953543 -9.345014952854944,-46.04488118242082 -9.301137987583834,-46.744239583542175 C -9.260887002499235,-47.385803201226096 -9.203318813622687,-48.900396604980315 -9.230473750322213,-49.770881472953285 C -9.263119176462059,-50.81737072747478 -9.406393227173432,-53.30058739828438 -9.550322706543614,-54.73216198545202 C -9.714413168635827,-56.364264988643114 -10.17943177343418,-59.338409782548894 -10.329097083136073,-60.69818594878371 C -10.430776576357179,-61.62198954597191 -10.538627342335873,-63.19274358415287 -10.552366330864155,-63.836175738489324 C -10.57012398134329,-64.66781216355983 -10.516387799293911,-66.27064165297176 -10.46449376365886,-67.03916058890752 C -10.417971004876568,-67.72813419904651 -10.262275030931166,-69.0578638957808 -10.156690102628184,-69.69589873319876 C -10.054347558891918,-70.31434029775932 -9.76890813199731,-71.70293685673681 -9.56649357443983,-72.46564914118974 C -9.353847904685896,-73.26691297573875 -8.891532093199404,-75.28043667978959 -8.380612389964387,-76.3882844288623 C -7.878189268555521,-77.4777086977065 -6.756828540676222,-80.5333442915631 -5.299145459961132,-81.71871175200931" fill="none" stroke="#4C5950" stroke-width="0.107"/><path d="M -2.102,-79.144 C -0.7498337106687298,-80.05477631231457 3.3900189600426374,-82.19259120481665 6.2589131061719865,-82.77229026008285 C 9.540765106694243,-83.43543306261289 17.424936829885723,-84.1408656107031 21.93841264844837,-84.00154354988523 C 26.028115561338403,-83.87530251949944 34.74742002779891,-82.70642225199965 39.32095705489617,-81.75173043369739 C 44.51611387450943,-80.66728010978039 54.337734329566345,-77.93386479593418 58.91187634783295,-76.28360815787609 C 62.830973335839616,-74.8696783336984 69.37492476952977,-71.72791059350124 71.87471428311395,-70.00700240709443 C 74.45663759652047,-68.22955156870559 78.26192302546711,-64.00053077571195 79.67623640217656,-61.98898174679724 C 81.14166930568018,-59.90472645901884 82.64214858438125,-55.6362572388495 83.24891429563209,-53.82971004272829 C 83.8278621243759,-52.10598611218269 84.22216558914413,-49.12317312775137 84.38574889094664,-47.967166697053685 C 84.54196002326628,-46.86325773129589 84.57706256427545,-45.08434937316345 84.579600006061,-44.42605318079298 C 84.5820933344086,-43.77920147097269 84.4726495490173,-42.743982451441646 84.40736410796057,-42.359465610650275 C 84.34739315597974,-42.006249937727425 84.1597661097238,-41.36036220999362 84.01362602287115,-41.0925913175705 C 83.85111341406761,-40.794821231165606 83.38824966404246,-40.11968823702416 83.02817161013009,-39.832386190342504 C 82.63387306271487,-39.51778001413949 81.586631360501,-38.92996754407616 80.95775882434695,-38.65435080003822 C 80.2977217503614,-38.36507553546908 78.88782420135037,-37.89777150861829 78.15432419708816,-37.696319057985946 C 77.55544675106418,-37.531840082622715 76.24735434684943,-37.2593000012212 75.54144625776239,-37.166785110073775 C 74.66533514669706,-37.05196375397048 72.77797905228047,-36.887750532423816 71.77001488779624,-36.85960434975174 C 71.0458956275893,-36.839384193428444 69.2571447488257,-36.891102883968536 68.1963105581085,-36.96168106130093 C 66.56434679347063,-37.07025696221791 62.976191934299166,-37.44732697892683 61.00939641809333,-37.57551720890223 C 59.393832011267264,-37.680815177676635 56.50198130949333,-37.80886825364992 55.227924484591945,-37.80692418875161 C 53.94271388052958,-37.80496310446286 51.71806443788654,-37.65951879733803 50.78234467375598,-37.55991189843195 C 49.929528950592946,-37.4691300930465 48.4265463239412,-37.18635349268155 47.7819429343977,-37.01430319263971 C 47.10933034539816,-36.834776991526745 45.78921715761163,-36.357210512804855 45.15427659835529,-36.057731151733876 C 44.47418080696739,-35.7369536394098 43.12717694035269,-34.95995465259152 42.46909457299099,-34.50841754784079 C 41.84959932145618,-34.083356634255935 40.607877045594996,-33.10288029663443 40.01339516461894,-32.53036309936937 C 39.442525559068386,-31.980585760425075 38.19501915339606,-30.59604225493295 37.53578659842492,-29.757383504201535 C 36.61387784006651,-28.584554823726155 35.11373558203213,-26.264182281033968 34.31647735902614,-25.282890361820513 C 33.866115411175514,-24.728569907801532 32.98608278842032,-23.94313143193388 32.609144427907275,-23.6935085747499 C 32.10337232190593,-23.358567132302447 30.877030055809872,-22.80562085025259 30.19303746484287,-22.552192307073625 C 29.522237326772622,-22.30365174683882 27.95517692996568,-21.753662256730514 27.032715234891207,-21.62736583403868 C 26.076824413049028,-21.496492550164408 23.797269000900542,-21.2910544877496 22.524520370241902,-21.502277409175246 C 21.127275452775585,-21.734161495557363 18.266152788157772,-22.689232235888337 16.822245159944515,-23.321875862498324 C 15.41737129464856,-23.937416967555187 13.090576924542777,-25.528707567229958 11.973059102025045,-26.12536727470896 C 11.082886495108221,-26.600643924930246 9.33130882271784,-27.50128744760979 8.429003380652194,-27.8031548935123 C 7.4032485199452545,-28.146322501162793 4.896615365242464,-28.644984520229922 3.4654194878846454,-28.97160904745084 C 1.6659716683609924,-29.38227526205431 -1.8674274014450938,-29.889766706186624 -3.4413754088883834,-30.512187892702226 C -4.6526975211851465,-30.99120787482543 -6.463539724059882,-32.350009019760975 -6.917409533709495,-33.07752152260743 C -7.339331850650634,-33.75382506666027 -7.387197824178676,-35.69972209582987 -7.331713564046984,-36.74805022151289 C -7.252108802402172,-38.25211480437793 -6.616243406414458,-41.23104550031556 -6.405816461871154,-42.74363953228716 C -6.259270304938855,-43.797044755013054 -6.031699294956682,-45.65938683837689 -5.979370252766166,-46.46898413641429 C -5.923843319941706,-47.328056897947356 -5.890145766624295,-49.203019655674005 -5.922918570357225,-50.21468833868953 C -5.960422689000181,-51.37240870415993 -6.137202670172493,-53.8993618476102 -6.264383615050426,-55.2671051398432 C -6.400264499030727,-56.72841027313281 -6.767237840612133,-59.393508218986604 -6.889432916774401,-60.608883124927665 C -6.9866662720345145,-61.575984122079674 -7.113659147869646,-63.22820813469333 -7.133551453180571,-63.91200976850137 C -7.155504090973638,-64.66663570826363 -7.110150724529527,-66.07266495878275 -7.067250003886838,-66.72137802111685 C -7.026022767449431,-67.34478588933501 -6.886220196090914,-68.56904131044281 -6.786054206990113,-69.16660687903484 C -6.687170932736569,-69.75652008744031 -6.4239923338696245,-71.05860076620854 -6.222968204224658,-71.75815485720754 C -6.0140048206219365,-72.48533716177194 -5.57142066289735,-74.24032521151595 -5.069676839499244,-75.13951575941117 C -4.605310544662032,-75.97172088801808 -3.37823322623391,-78.28386034693888 -2.101759368919271,-79.14390004787343" fill="none" stroke="#4C5950" stroke-width="0.107"/><path d="M 1.822,-75.107 C 2.884704933411241,-75.67237327162402 6.251476791134657,-77.16602290600093 8.636932052996826,-77.55861603100564 C 11.34795785472986,-78.00479085913463 18.115965180760764,-78.61171612787177 22.122624433939567,-78.44805922759728 C 25.98216359349919,-78.29041162758229 34.26764070663731,-77.2312786225815 38.63938464704382,-76.33312913983103 C 43.30501251289994,-75.37460290601067 52.05905966702934,-72.92722148305286 56.10674401476648,-71.46621860762458 C 59.75708894896075,-70.1486345306586 65.79580753655615,-67.22170341696011 68.1224452026458,-65.69128245723543 C 70.40068131078783,-64.19269918321747 73.68908751551723,-60.695387004841194 74.8985021737545,-59.105333637973125 C 76.15589090458052,-57.452207333198615 77.5529769237363,-54.03610451190423 78.09815741715566,-52.57591736259757 C 78.6316227882482,-51.14710747509811 79.10665064124943,-48.57858769256694 79.22378645059327,-47.52068489435063 C 79.34346321563176,-46.43983365573362 79.33891417509636,-44.6084780675544 79.04788293236966,-43.99854648250142 C 78.76119955594916,-43.39772698095841 77.45894671839358,-42.902577030676035 76.91423374123404,-42.68041712246149 C 76.41172866676852,-42.47547160821517 75.26329719460387,-42.2892346337639 74.65961547183623,-42.208801906676044 C 73.99772539560092,-42.120613674605806 72.48755246086816,-41.99279251631029 71.64241262906388,-41.97801562051244 C 70.89816380371197,-41.96500275929583 69.03991045138132,-42.02578635316054 67.92824697424034,-42.09110690861453 C 66.50350645543786,-42.17482364841903 63.337052223197794,-42.46914311723361 61.58795737827279,-42.56880826169736 C 59.994233940071396,-42.65962019060133 56.99219395218284,-42.795335095595746 55.5848092635832,-42.79444812889284 C 54.23174838515664,-42.79359539832394 51.77984284859981,-42.67770427848211 50.687719092094696,-42.56193867693355 C 49.66656843495873,-42.453696255329845 47.707288848597436,-42.115096469292226 46.78667654560452,-41.86184216685406 C 45.751726793389345,-41.57713439496822 43.72839567089488,-40.83533427574211 42.75581485550253,-40.37992474130192 C 41.8405870735179,-39.95137068028828 40.12876219424931,-38.93247123285133 39.33277081392316,-38.371561785725355 C 38.53496855348005,-37.80937626979974 37.00188780522682,-36.52337829611716 36.27300824825981,-35.811700059769315 C 35.526629564192,-35.08293567003208 34.1228340321997,-33.442550770017256 33.41001847029677,-32.58858447219389 C 32.613519697009636,-31.63436413105956 31.324316832908575,-29.76556281889027 30.616589958250955,-29.035205768365138 C 30.049993413868926,-28.45049181187905 28.89115248576325,-27.65973965215513 28.38402298555415,-27.401878456592776 C 27.87474439516592,-27.14292450866099 26.722112473244003,-26.816283023788372 26.11809697677566,-26.747847651841052 C 25.475306738755474,-26.675019074958136 23.920694190577883,-26.629536785632435 23.04871236608786,-26.797384087106344 C 22.10181634895734,-26.97965158029028 20.008096556749052,-27.661281186427317 18.88044211986242,-28.141019851781014 C 17.825772285183362,-28.589708636507183 15.670631487082645,-29.898000980669064 14.429419999873057,-30.46429451711151 C 13.239373897236229,-31.007244226275752 10.414617036415702,-32.22894100152061 8.736637542556675,-32.76905546558095 C 6.34231780563862,-33.539748269770385 1.9196658934945823,-34.32616617432079 0.1265320422400334,-35.06816285520759 C -0.7381973133447588,-35.42598684657354 -1.8476228725955344,-36.65469090468705 -1.974961318732157,-37.2015024892688 C -2.2028216048038454,-38.179970877020516 -1.5945291821156582,-40.51925209971864 -1.4508382017860915,-41.8416421050063 C -1.3261268404516526,-42.98936242395902 -1.0454962026048478,-45.242871856016976 -0.9802558322504407,-46.355790326342984 C -0.9185198671060989,-47.4089280617559 -0.8959057026711339,-49.592403609337204 -0.9304769962211966,-50.71834825747464 C -0.9687244504460883,-51.96402095199029 -1.158529592036723,-54.527695407026165 -1.2716509687415931,-55.8461726850585 C -1.3885846696110498,-57.20908420650192 -1.6897403848953858,-59.66373690994193 -1.7923126313764934,-60.7634054822945 C -1.8786613380522728,-61.68914282599336 -2.0126912660146,-63.28281446023134 -2.0276384773730025,-63.95105224900759 C -2.042046495580595,-64.5951845889358 -2.0012033375576888,-65.93016487251852 -1.9231762599222542,-66.61386277990242 C -1.8217341973000187,-67.50273018385134 -1.536069342383659,-69.28290560845225 -1.3189423640647866,-70.1608715107749 C -1.148107005361419,-70.85165448493089 -0.7600259471826725,-72.19047638469317 -0.4062803919629076,-72.74752180170557 C -0.08974938219919659,-73.24596523294994 0.9107471906940822,-74.62220478750731 1.8220653002418226,-75.10703662404627" fill="none" stroke="#4C5950" stroke-width="0.107"/><path d="M 6.682,-68.415 C 7.280509451111318,-68.84222516174393 9.613864954112287,-69.73900636458553 11.297916002186765,-69.95527007548331 C 13.382671724423227,-70.22299177508484 18.94915358254785,-70.62636126782876 22.396144282072886,-70.43342178126055 C 25.82805097956392,-70.24132659624738 33.295201710990575,-69.31468705760979 37.28016158636581,-68.50095773179424 C 41.40281299959211,-67.65911177600749 49.05727239632356,-65.51598557194286 52.56543944408664,-64.27284777793915 C 55.78957237218193,-63.13035899640785 60.980250359280994,-60.61631141448868 62.95270008963634,-59.40375613137994 C 64.82172628174457,-58.254780039045684 67.36377076376753,-55.66203094055617 68.2713029359583,-54.61773339922052 C 69.29968042748074,-53.43437911287126 70.26639119919682,-51.29532150039315 70.578904832563,-50.6282800581345 C 70.71162513263907,-50.34499660766178 70.74644362566006,-49.72249441928425 70.58883027650536,-49.671111509285296 C 70.2539608205726,-49.56194203088849 68.85449444420266,-49.6777399361105 67.82670154721895,-49.73104505571813 C 66.64261126136579,-49.792456332735966 63.802774333807854,-50.027406880191 62.14167292125273,-50.10921215630051 C 60.59197393436024,-50.185531129092396 57.50926128796924,-50.32042072118489 55.97660431854734,-50.314634033723294 C 54.52017142714782,-50.30913513728433 51.7382198578461,-50.20462838965084 50.42189104137291,-50.06496304106471 C 49.110024937700416,-49.92577119600683 46.58588054948594,-49.48539291158822 45.38422707798534,-49.19075978502104 C 44.016339101638366,-48.85536766006718 41.696796728700264,-48.04822528500751 40.719401704288124,-47.68601200678677 C 40.121728284433196,-47.46451993520469 38.983894413657744,-46.929937071433514 38.451521354667356,-46.621565135710185 C 37.59553895692737,-46.1257456262918 35.613260780602545,-44.906087175968175 34.54414673996525,-44.109055406945494 C 33.52805796779616,-43.351554335232635 31.628100726031256,-41.72230127495932 30.738685431517695,-40.87159363936242 C 29.88412592569514,-40.05422485656815 28.456117827023437,-38.39941086489382 27.792852540070946,-37.651579848070256 C 27.06681138100976,-36.83296909168467 26.01183656593229,-35.398607294745034 25.498676919198356,-34.96348873621442 C 25.18892307273229,-34.700842115359784 24.421333877687275,-34.475560118613885 24.089259591509226,-34.51122764886887 C 23.625102761254233,-34.561081938933654 22.343512397088944,-35.04065443598303 21.528208113987148,-35.38994998940644 C 20.600734558911988,-35.78730150027187 18.432652864226373,-36.92660668170762 17.115021549956776,-37.4991554531516 C 15.771494001901727,-38.082956884333036 12.994626657071171,-39.1101398636592 11.620136464467109,-39.69529260602172 C 10.281650855252535,-40.26511735199594 7.64826482101498,-40.94623336380453 6.978610629616159,-41.814463543137585 C 6.338903298974898,-42.64386656567844 6.597458200469961,-45.080546966271775 6.548815553867238,-46.270438286015356 C 6.50058502508528,-47.450248422848695 6.630360537194534,-49.940152296563504 6.592992927508493,-51.247403330005326 C 6.556522488735522,-52.52326815455825 6.360169780182089,-55.26001631703993 6.2500501837936335,-56.72230668398902 C 6.111673517545721,-58.55982582409791 5.7733092685030885,-61.80750509834665 5.690894595976063,-63.22646739765219 C 5.640184331110357,-64.09956379937168 5.619235056554282,-65.482978745776 5.712776519119388,-65.97273565745228 C 5.820023590253997,-66.53425129880388 6.077575733190903,-67.9844623522828 6.681963455987693,-68.41542650549168" fill="none" stroke="#4C5950" stroke-width="0.107"/></g><g fill="none"><polyline points="21.178,11.266 38.992,16.165 48.605,25.587 53.699,30.277 56.479,32.717 58.643,34.469 60.757,36.054 62.821,37.473 65.351,39.08 68.347,40.876 72.791,43.402 81.628,48.29" stroke="#A5A58C" stroke-width="2.214" stroke-linejoin="round" stroke-linecap="butt"/><polyline points="21.178,11.266 38.992,16.165 48.605,25.587 53.699,30.277 56.479,32.717 58.643,34.469 60.757,36.054 62.821,37.473 65.351,39.08 68.347,40.876 72.791,43.402 81.628,48.29" stroke="#FFF2C8" stroke-width="1.786" stroke-linejoin="round" stroke-linecap="round"/></g><g fill="none"><polyline points="-24.985,-3.371 -38.646,-3.735 -59.769,-0.963 -88.158,1.512" stroke="#A5A58C" stroke-width="2.214" stroke-linejoin="round" stroke-linecap="butt"/><polyline points="-24.985,-3.371 -38.646,-3.735 -59.769,-0.963 -88.158,1.512" stroke="#FFF2C8" stroke-width="1.786" stroke-linejoin="round" stroke-linecap="round"/></g><g fill="none"><polyline points="10.013,-11.032 9.457,-9.949 9.169,-9.388 8.964,-8.987 8.778,-8.626 8.614,-8.306 8.449,-7.985 8.284,-7.664 8.12,-7.343 7.955,-7.023 7.777,-6.682 7.586,-6.322 7.381,-5.942 7.163,-5.542 6.932,-5.123 6.687,-4.683 6.429,-4.224 6.157,-3.745 5.886,-3.266 5.615,-2.787 5.343,-2.309 5.072,-1.83 4.766,-1.291 4.427,-0.692 3.952,0.146 3.036,1.762 1.585,2.904 0.832,3.496 0.295,3.919 -0.189,4.299 -0.619,4.638 -1.049,4.976 -1.478,5.314 -1.908,5.653 -2.338,5.991 -2.768,6.344 -3.197,6.712 -3.625,7.095 -4.053,7.493 -4.481,7.905 -4.908,8.332 -5.335,8.774 -5.761,9.231 -6.187,9.688 -6.613,10.145 -7.04,10.602 -7.466,11.059 -7.892,11.516 -8.318,11.973 -8.744,12.429 -9.171,12.886 -9.575,13.375 -9.958,13.897 -10.32,14.45 -10.659,15.036 -10.978,15.654 -11.274,16.304 -11.549,16.986 -11.802,17.701 -12.056,18.415 -12.309,19.13 -12.562,19.844 -12.816,20.559 -13.069,21.273 -13.323,21.988 -13.576,22.702 -13.829,23.416 -14.08,24.147 -14.329,24.894 -14.575,25.656 -14.818,26.435 -15.06,27.23 -15.299,28.04 -15.535,28.867 -15.769,29.71 -16.003,30.553 -16.237,31.396 -16.471,32.239 -16.705,33.081 -16.939,33.924 -17.173,34.767 -17.407,35.61 -17.641,36.453 -17.948,37.323 -18.326,38.221 -18.777,39.147 -19.3,40.1 -19.896,41.081 -20.564,42.089 -21.304,43.125 -22.116,44.189 -22.928,45.253 -23.741,46.316 -24.553,47.38 -25.365,48.443 -26.177,49.507 -26.99,50.571 -27.802,51.634 -28.614,52.698 -29.418,53.738 -30.213,54.754 -30.998,55.747 -31.776,56.717 -32.544,57.663 -33.303,58.586 -34.054,59.485 -34.796,60.36 -35.537,61.236 -36.279,62.112 -37.021,62.987 -37.763,63.863 -38.504,64.738 -39.246,65.614 -39.988,66.489 -40.73,67.365 -41.556,68.195 -42.466,68.978 -43.461,69.716 -44.54,70.407 -45.703,71.052 -46.951,71.652 -48.282,72.205 -49.699,72.713 -51.115,73.22 -52.531,73.727 -53.947,74.235 -55.363,74.742 -56.779,75.249 -58.195,75.757 -59.612,76.264 -61.028,76.772 -62.3,77.305 -63.428,77.866 -64.413,78.453 -65.254,79.067 -65.95,79.707 -66.503,80.374 -66.912,81.067 -67.177,81.788 -67.442,82.508 -67.708,83.228 -67.973,83.948 -68.238,84.668 -68.536,85.478 -68.868,86.378 -69.332,87.638 -70.226,90.068" stroke="#4C5950" stroke-width="3.684" stroke-linejoin="round" stroke-linecap="butt"/><polyline points="10.013,-11.032 9.457,-9.949 9.169,-9.388 8.964,-8.987 8.778,-8.626 8.614,-8.306 8.449,-7.985 8.284,-7.664 8.12,-7.343 7.955,-7.023 7.777,-6.682 7.586,-6.322 7.381,-5.942 7.163,-5.542 6.932,-5.123 6.687,-4.683 6.429,-4.224 6.157,-3.745 5.886,-3.266 5.615,-2.787 5.343,-2.309 5.072,-1.83 4.766,-1.291 4.427,-0.692 3.952,0.146 3.036,1.762 1.585,2.904 0.832,3.496 0.295,3.919 -0.189,4.299 -0.619,4.638 -1.049,4.976 -1.478,5.314 -1.908,5.653 -2.338,5.991 -2.768,6.344 -3.197,6.712 -3.625,7.095 -4.053,7.493 -4.481,7.905 -4.908,8.332 -5.335,8.774 -5.761,9.231 -6.187,9.688 -6.613,10.145 -7.04,10.602 -7.466,11.059 -7.892,11.516 -8.318,11.973 -8.744,12.429 -9.171,12.886 -9.575,13.375 -9.958,13.897 -10.32,14.45 -10.659,15.036 -10.978,15.654 -11.274,16.304 -11.549,16.986 -11.802,17.701 -12.056,18.415 -12.309,19.13 -12.562,19.844 -12.816,20.559 -13.069,21.273 -13.323,21.988 -13.576,22.702 -13.829,23.416 -14.08,24.147 -14.329,24.894 -14.575,25.656 -14.818,26.435 -15.06,27.23 -15.299,28.04 -15.535,28.867 -15.769,29.71 -16.003,30.553 -16.237,31.396 -16.471,32.239 -16.705,33.081 -16.939,33.924 -17.173,34.767 -17.407,35.61 -17.641,36.453 -17.948,37.323 -18.326,38.221 -18.777,39.147 -19.3,40.1 -19.896,41.081 -20.564,42.089 -21.304,43.125 -22.116,44.189 -22.928,45.253 -23.741,46.316 -24.553,47.38 -25.365,48.443 -26.177,49.507 -26.99,50.571 -27.802,51.634 -28.614,52.698 -29.418,53.738 -30.213,54.754 -30.998,55.747 -31.776,56.717 -32.544,57.663 -33.303,58.586 -34.054,59.485 -34.796,60.36 -35.537,61.236 -36.279,62.112 -37.021,62.987 -37.763,63.863 -38.504,64.738 -39.246,65.614 -39.988,66.489 -40.73,67.365 -41.556,68.195 -42.466,68.978 -43.461,69.716 -44.54,70.407 -45.703,71.052 -46.951,71.652 -48.282,72.205 -49.699,72.713 -51.115,73.22 -52.531,73.727 -53.947,74.235 -55.363,74.742 -56.779,75.249 -58.195,75.757 -59.612,76.264 -61.028,76.772 -62.3,77.305 -63.428,77.866 -64.413,78.453 -65.254,79.067 -65.95,79.707 -66.503,80.374 -66.912,81.067 -67.177,81.788 -67.442,82.508 -67.708,83.228 -67.973,83.948 -68.238,84.668 -68.536,85.478 -68.868,86.378 -69.332,87.638 -70.226,90.068" stroke="#779988" stroke-width="3.255" stroke-linejoin="round" stroke-linecap="round"/><polyline points="10.013,-11.032 9.457,-9.949 9.169,-9.388 8.964,-8.987 8.778,-8.626 8.614,-8.306 8.449,-7.985 8.284,-7.664 8.12,-7.343 7.955,-7.023 7.777,-6.682 7.586,-6.322 7.381,-5.942 7.163,-5.542 6.932,-5.123 6.687,-4.683 6.429,-4.224 6.157,-3.745 5.886,-3.266 5.615,-2.787 5.343,-2.309 5.072,-1.83 4.766,-1.291 4.427,-0.692 3.952,0.146 3.036,1.762 1.585,2.904 0.832,3.496 0.295,3.919 -0.189,4.299 -0.619,4.638 -1.049,4.976 -1.478,5.314 -1.908,5.653 -2.338,5.991 -2.768,6.344 -3.197,6.712 -3.625,7.095 -4.053,7.493 -4.481,7.905 -4.908,8.332 -5.335,8.774 -5.761,9.231 -6.187,9.688 -6.613,10.145 -7.04,10.602 -7.466,11.059 -7.892,11.516 -8.318,11.973 -8.744,12.429 -9.171,12.886 -9.575,13.375 -9.958,13.897 -10.32,14.45 -10.659,15.036 -10.978,15.654 -11.274,16.304 -11.549,16.986 -11.802,17.701 -12.056,18.415 -12.309,19.13 -12.562,19.844 -12.816,20.559 -13.069,21.273 -13.323,21.988 -13.576,22.702 -13.829,23.416 -14.08,24.147 -14.329,24.894 -14.575,25.656 -14.818,26.435 -15.06,27.23 -15.299,28.04 -15.535,28.867 -15.769,29.71 -16.003,30.553 -16.237,31.396 -16.471,32.239 -16.705,33.081 -16.939,33.924 -17.173,34.767 -17.407,35.61 -17.641,36.453 -17.948,37.323 -18.326,38.221 -18.777,39.147 -19.3,40.1 -19.896,41.081 -20.564,42.089 -21.304,43.125 -22.116,44.189 -22.928,45.253 -23.741,46.316 -24.553,47.38 -25.365,48.443 -26.177,49.507 -26.99,50.571 -27.802,51.634 -28.614,52.698 -29.418,53.738 -30.213,54.754 -30.998,55.747 -31.776,56.717 -32.544,57.663 -33.303,58.586 -34.054,59.485 -34.796,60.36 -35.537,61.236 -36.279,62.112 -37.021,62.987 -37.763,63.863 -38.504,64.738 -39.246,65.614 -39.988,66.489 -40.73,67.365 -41.556,68.195 -42.466,68.978 -43.461,69.716 -44.54,70.407 -45.703,71.052 -46.951,71.652 -48.282,72.205 -49.699,72.713 -51.115,73.22 -52.531,73.727 -53.947,74.235 -55.363,74.742 -56.779,75.249 -58.195,75.757 -59.612,76.264 -61.028,76.772 -62.3,77.305 -63.428,77.866 -64.413,78.453 -65.254,79.067 -65.95,79.707 -66.503,80.374 -66.912,81.067 -67.177,81.788 -67.442,82.508 -67.708,83.228 -67.973,83.948 -68.238,84.668 -68.536,85.478 -68.868,86.378 -69.332,87.638 -70.226,90.068" stroke="#4C5950" stroke-width="2.21" stroke-linejoin="round" stroke-linecap="butt"/><polyline points="10.013,-11.032 9.457,-9.949 9.169,-9.388 8.964,-8.987 8.778,-8.626 8.614,-8.306 8.449,-7.985 8.284,-7.664 8.12,-7.343 7.955,-7.023 7.777,-6.682 7.586,-6.322 7.381,-5.942 7.163,-5.542 6.932,-5.123 6.687,-4.683 6.429,-4.224 6.157,-3.745 5.886,-3.266 5.615,-2.787 5.343,-2.309 5.072,-1.83 4.766,-1.291 4.427,-0.692 3.952,0.146 3.036,1.762 1.585,2.904 0.832,3.496 0.295,3.919 -0.189,4.299 -0.619,4.638 -1.049,4.976 -1.478,5.314 -1.908,5.653 -2.338,5.991 -2.768,6.344 -3.197,6.712 -3.625,7.095 -4.053,7.493 -4.481,7.905 -4.908,8.332 -5.335,8.774 -5.761,9.231 -6.187,9.688 -6.613,10.145 -7.04,10.602 -7.466,11.059 -7.892,11.516 -8.318,11.973 -8.744,12.429 -9.171,12.886 -9.575,13.375 -9.958,13.897 -10.32,14.45 -10.659,15.036 -10.978,15.654 -11.274,16.304 -11.549,16.986 -11.802,17.701 -12.056,18.415 -12.309,19.13 -12.562,19.844 -12.816,20.559 -13.069,21.273 -13.323,21.988 -13.576,22.702 -13.829,23.416 -14.08,24.147 -14.329,24.894 -14.575,25.656 -14.818,26.435 -15.06,27.23 -15.299,28.04 -15.535,28.867 -15.769,29.71 -16.003,30.553 -16.237,31.396 -16.471,32.239 -16.705,33.081 -16.939,33.924 -17.173,34.767 -17.407,35.61 -17.641,36.453 -17.948,37.323 -18.326,38.221 -18.777,39.147 -19.3,40.1 -19.896,41.081 -20.564,42.089 -21.304,43.125 -22.116,44.189 -22.928,45.253 -23.741,46.316 -24.553,47.38 -25.365,48.443 -26.177,49.507 -26.99,50.571 -27.802,51.634 -28.614,52.698 -29.418,53.738 -30.213,54.754 -30.998,55.747 -31.776,56.717 -32.544,57.663 -33.303,58.586 -34.054,59.485 -34.796,60.36 -35.537,61.236 -36.279,62.112 -37.021,62.987 -37.763,63.863 -38.504,64.738 -39.246,65.614 -39.988,66.489 -40.73,67.365 -41.556,68.195 -42.466,68.978 -43.461,69.716 -44.54,70.407 -45.703,71.052 -46.951,71.652 -48.282,72.205 -49.699,72.713 -51.115,73.22 -52.531,73.727 -53.947,74.235 -55.363,74.742 -56.779,75.249 -58.195,75.757 -59.612,76.264 -61.028,76.772 -62.3,77.305 -63.428,77.866 -64.413,78.453 -65.254,79.067 -65.95,79.707 -66.503,80.374 -66.912,81.067 -67.177,81.788 -67.442,82.508 -67.708,83.228 -67.973,83.948 -68.238,84.668 -68.536,85.478 -68.868,86.378 -69.332,87.638 -70.226,90.068" stroke="#779988" stroke-width="1.996" stroke-linejoin="round" stroke-linecap="round"/><g><path fill="#779988" stroke="#779988" stroke-width="0.214" stroke-linejoin="round" stroke-linecap="round" d="M 8.47,-11.824 C 11.104006319167807,-16.955777293432885 10.99389108764629,-17.598848936202835 9.340445137045833,-19.034146365580597 L 17.79,-14.384 C 15.218832275941331,-15.273536725097511 14.190667757325683,-15.371325720217254 11.556461040044455,-10.239642031162122 Z"/><path fill="none" stroke="#4C5950" stroke-width="0.214" stroke-linejoin="round" stroke-linecap="round" d="M 8.47,-11.824 C 11.104006319167807,-16.955777293432885 10.99389108764629,-17.598848936202835 9.340445137045833,-19.034146365580597 M 11.556,-10.24 C 14.190667757325683,-15.371325720217254 15.218832275941331,-15.273536725097511 17.790327513635916,-14.383521943369951"/></g><g fill="none"><line x1="5.022" y1="2.802" x2="1.335" y2="0.302" stroke="#4C5950" stroke-width="2.214" stroke-linejoin="round" stroke-linecap="butt"/><line x1="5.022" y1="2.802" x2="1.335" y2="0.302" stroke="#FFF2C8" stroke-width="1.786" stroke-linejoin="round" stroke-linecap="round"/></g></g><g fill="#D6A36E" stroke="#4C5950" stroke-width="0.214"><polygon points="-3.073,-4.362 -1.986,-4.296 -2.067,-2.976 -3.153,-3.042"/></g><g fill="#D6A36E" stroke="#4C5950" stroke-width="0.214"><g fill="#4C5950" stroke="#4C5950" stroke-width="0.214" stroke-linejoin="round"><polygon points="10.119,18.156 6.973,17.539 2.37,16.635 2.37,15.835 6.973,16.739 10.119,17.356"/><polygon points="3.111,12.86 0.153,12.28 0.153,11.48 3.111,12.06"/><polygon points="15.096,9.209 14.496,12.267 13.962,14.989 10.86,14.381 10.119,18.156 10.119,17.356 10.86,13.581 13.962,14.189 14.496,11.467 15.096,8.409"/></g><polygon points="10.119,17.356 6.973,16.739 2.37,15.835 3.111,12.06 0.153,11.48 0.688,8.757 1.288,5.699 4.245,6.28 8.849,7.183 11.994,7.8 15.096,8.409 14.496,11.467 13.962,14.189 10.86,13.581"/></g><g fill="#D6A36E" stroke="#4C5950" stroke-width="0.214"><g fill="#4C5950" stroke="#4C5950" stroke-width="0.214" stroke-linejoin="round"><polygon points="-7.591,7.32 -12.057,12.108 -14.344,9.257 -14.344,8.857 -12.057,11.708 -7.591,6.92"/><polygon points="-11.814,7.227 -12.957,8.145 -14.344,9.257 -16.281,6.842 -18.28,4.349 -18.28,3.949 -16.281,6.442 -14.344,8.857 -12.957,7.745 -11.814,6.827"/><polygon points="-5.682,5.273 -7.591,7.32 -13.226,0.295 -13.226,-0.105 -7.591,6.92 -5.682,4.873"/><polygon points="-18.603,-0.308 -20.68,1.358 -23.857,-2.604 -23.857,-3.004 -20.68,0.958 -18.603,-0.708"/><polygon points="-17.171,-1.457 -19.159,-1 -19.743,-3.548 -19.743,-3.948 -19.159,-1.4 -17.171,-1.857"/><polygon points="-13.884,0.823 -15.297,1.957 -18.28,4.349 -19.101,3.325 -19.101,2.925 -18.28,3.949 -15.297,1.557 -13.884,0.423"/><polygon points="-16.119,0.933 -17.697,-1.035 -17.697,-1.435 -16.119,0.533"/><polygon points="-9.025,-3.074 -13.884,0.823 -17.756,-4.004 -17.756,-4.404 -13.884,0.423 -9.025,-3.474"/></g><polygon points="-9.29,4.803 -7.591,6.92 -12.057,11.708 -14.344,8.857"/><polygon points="-11.814,6.827 -12.957,7.745 -14.344,8.857 -16.281,6.442 -18.28,3.949 -16.894,2.837 -15.75,1.92 -13.751,4.413"/><polygon points="-13.226,-0.105 -9.025,-3.474 -5.682,4.873 -7.591,6.92"/><polygon points="-18.603,-0.708 -20.68,0.958 -23.857,-3.004 -20.975,-3.665"/><polygon points="-19.743,-3.948 -17.756,-4.404 -17.171,-1.857 -19.159,-1.4"/><polygon points="-16.283,-2.569 -14.705,-0.601 -13.884,0.423 -15.297,1.557 -18.28,3.949 -19.101,2.925 -16.119,0.533 -17.697,-1.435"/><polygon points="-17.756,-4.404 -10.101,-6.161 -9.025,-3.474 -13.884,0.423"/></g><g fill="#D6A36E" stroke="#4C5950" stroke-width="0.214"><g fill="#4C5950" stroke="#4C5950" stroke-width="0.214" stroke-linejoin="round"><polygon points="-6.618,-7.754 -9.076,-7.904 -9.076,-8.304 -6.618,-8.154"/><polygon points="-6.574,-10.636 -6.618,-7.754 -6.618,-8.154 -6.574,-11.036"/><polygon points="-4.039,-10.597 -4.085,-7.6 -6.618,-7.754 -6.618,-8.154 -4.085,-8 -4.039,-10.997"/><polygon points="-5.977,-10.627 -9.034,-10.674 -9.034,-11.074 -5.977,-11.027"/><polygon points="-5.94,-13.059 -5.977,-10.627 -5.977,-11.027 -5.94,-13.459"/><polygon points="-1.792,-7.46 -4.085,-7.6 -4.085,-8 -1.792,-7.86"/><polygon points="-1.748,-10.287 -1.792,-7.46 -1.792,-7.86 -1.748,-10.687"/><polygon points="-0.296,-10.264 -1.084,-7.417 -1.792,-7.46 -1.792,-7.86 -1.084,-7.817 -0.296,-10.664"/><polygon points="0.451,-12.961 0.047,-11.503 -1.867,-11.533 -2.058,-10.291 -4.044,-10.322 -4.044,-10.722 -2.058,-10.691 -1.867,-11.933 0.047,-11.903 0.451,-13.361"/><polygon points="-5.234,-13.048 -7.072,-13.076 -8.996,-13.106 -8.996,-13.506 -7.072,-13.476 -5.234,-13.448"/><polygon points="-6.965,-20.031 -7.01,-17.088 -7.01,-17.488 -6.965,-20.431"/><polygon points="-5.172,-17.066 -5.195,-15.593 -5.234,-13.048 -5.234,-13.448 -5.195,-15.993 -5.172,-17.466"/><polygon points="-3.122,-15.274 -5.199,-15.306 -5.199,-15.706 -3.122,-15.674"/><polygon points="-3.05,-19.993 -3.122,-15.274 -3.122,-15.674 -3.05,-20.393"/><polygon points="0.094,-15.225 -3.122,-15.274 -3.122,-15.674 0.094,-15.625"/></g><polygon points="-6.618,-8.154 -9.076,-8.304 -9.034,-11.074 -6.574,-11.036"/><polygon points="-6.574,-11.036 -4.039,-10.997 -4.085,-8 -6.618,-8.154"/><polygon points="-5.977,-11.027 -9.034,-11.074 -8.996,-13.506 -5.94,-13.459"/><polygon points="-1.792,-7.86 -4.085,-8 -4.044,-10.722 -1.748,-10.687"/><polygon points="-1.748,-10.687 -0.296,-10.664 -1.084,-7.817 -1.792,-7.86"/><polygon points="-4.044,-10.722 -4.025,-11.966 -4.002,-13.429 -1.642,-13.393 0.451,-13.361 0.047,-11.903 -1.867,-11.933 -2.058,-10.691"/><polygon points="-5.234,-13.448 -7.072,-13.476 -8.996,-13.506 -8.958,-16.043 -8.935,-17.512 -8.89,-20.449 -6.965,-20.431 -7.01,-17.488 -5.172,-17.466 -5.195,-15.993"/><polygon points="-3.122,-15.674 -5.199,-15.706 -5.127,-20.413 -3.05,-20.393"/><polygon points="-3.05,-20.393 -0.654,-20.369 0.094,-15.625 -3.122,-15.674"/><g fill="#4C5950" stroke="#4C5950" stroke-width="0.214" stroke-linejoin="round"><polygon points="2.699,-10.926 0.859,-11.435 0.859,-11.835 2.699,-11.326"/><polygon points="3.611,-14.22 2.699,-10.926 2.699,-11.326 3.611,-14.62"/><polygon points="8.05,-12.992 7.331,-11.593 5.425,-12.121 4.722,-10.366 2.699,-10.926 2.699,-11.326 4.722,-10.766 5.425,-12.521 7.331,-11.993 8.05,-13.392"/><polygon points="2.868,-7.177 1.789,-7.242 -0.267,-7.368 -0.267,-7.768 1.789,-7.642 2.868,-7.577"/><polygon points="2.801,-10.897 2.368,-9.331 2.368,-9.731 2.801,-11.297"/><polygon points="3.412,-9.142 2.868,-7.177 2.868,-7.577 3.412,-9.542"/><polygon points="6.455,-9.886 4.998,-7.047 2.868,-7.177 2.868,-7.577 4.998,-7.447 6.455,-10.286"/><polygon points="9.288,-15.405 8.05,-12.992 6.655,-13.378 6.655,-13.778 8.05,-13.392 9.288,-15.805"/><polygon points="9.288,-15.405 5.462,-16.517 5.462,-16.917 9.288,-15.805"/><polygon points="5.695,-17.356 5.186,-15.517 2.216,-16.339 2.216,-16.739 5.186,-15.917 5.695,-17.756"/><polygon points="5.186,-15.517 4.74,-13.908 1.771,-14.73 1.771,-15.13 4.74,-14.308 5.186,-15.917"/><polygon points="6.185,-19.125 5.695,-17.356 2.725,-18.178 2.725,-18.578 5.695,-17.756 6.185,-19.525"/></g><polygon points="2.699,-11.326 0.859,-11.835 1.771,-15.13 3.611,-14.62"/><polygon points="3.611,-14.62 6.001,-13.959 8.05,-13.392 7.331,-11.993 5.425,-12.521 4.722,-10.766 2.699,-11.326 3.2,-13.136"/><polygon points="2.868,-7.577 1.789,-7.642 -0.267,-7.768 0.376,-10.092 0.859,-11.835 2.801,-11.297 2.368,-9.731 3.412,-9.542"/><polygon points="3.82,-11.015 6.455,-10.286 4.998,-7.447 2.868,-7.577"/><polygon points="7.371,-16.362 9.288,-15.805 8.05,-13.392 6.655,-13.778"/><polygon points="5.462,-16.917 6.185,-19.525 9.05,-17.038 9.288,-15.805"/><polygon points="2.216,-16.739 2.725,-18.578 5.695,-17.756 5.186,-15.917"/><polygon points="5.186,-15.917 4.74,-14.308 1.771,-15.13 2.216,-16.739"/><polygon points="2.725,-18.578 3.211,-20.332 6.185,-19.525 5.695,-17.756"/></g><g fill="#D6A36E" stroke="#4C5950" stroke-width="0.214"><g fill="#4C5950" stroke="#4C5950" stroke-width="0.214" stroke-linejoin="round"><polygon points="21.756,-2.045 21.635,-0.402 21.545,0.819 19.412,0.662 19.412,0.262 21.545,0.419 21.635,-0.802 21.756,-2.445"/><polygon points="19.502,-0.559 17.99,-0.67 15.934,-0.821 15.934,-1.221 17.99,-1.07 19.502,-0.959"/><polygon points="21.363,3.291 21.196,5.56 21.035,7.762 20.872,9.977 18.701,8.84 18.701,8.44 20.872,9.577 21.035,7.362 21.196,5.16 21.363,2.891"/><polygon points="19.699,4.776 17.728,3.743 17.728,3.343 19.699,4.376"/><polygon points="16.767,5.577 15.843,7.342 11.978,5.318 11.978,4.918 15.843,6.942 16.767,5.177"/><polygon points="14.497,0.51 11.978,5.318 9.765,4.158 9.765,3.758 11.978,4.918 14.497,0.11"/><polygon points="9.765,4.158 7.458,2.95 5.871,2.118 5.871,1.718 7.458,2.55 9.765,3.758"/><polygon points="12.284,-0.65 11.509,0.829 10.594,2.577 9.765,4.158 9.765,3.758 10.594,2.177 11.509,0.429 12.284,-1.05"/><polygon points="13.682,-6.275 13.155,-5.269 12.128,-3.309 10.75,-4.068 9.704,-4.645 9.704,-5.045 10.75,-4.468 12.128,-3.709 13.155,-5.669 13.682,-6.675"/><polygon points="12.128,-3.309 11.069,-1.286 8.549,-2.607 8.549,-3.007 11.069,-1.686 12.128,-3.709"/><polygon points="19.776,-11.58 18.638,-9.361 18.126,-8.365 17.082,-8.901 17.082,-9.301 18.126,-8.765 18.638,-9.761 19.776,-11.98"/><polygon points="17.57,-9.851 16.303,-10.433 16.303,-10.833 17.57,-10.251"/><polygon points="16.713,-11.233 15.843,-9.537 12.972,-11.011 12.972,-11.411 15.843,-9.937 16.713,-11.633"/><polygon points="17.327,-12.428 16.713,-11.233 13.99,-12.994 13.99,-13.394 16.713,-11.633 17.327,-12.828"/><polygon points="15.274,-9.829 14.49,-8.302 12.188,-9.484 12.188,-9.884 14.49,-8.702 15.274,-10.229"/><polygon points="14.49,-8.302 13.499,-6.371 11.207,-7.572 11.207,-7.972 13.499,-6.771 14.49,-8.702"/><polygon points="21.1,-11.122 20.515,-8.863 20.515,-9.263 21.1,-11.522"/><polygon points="22.201,-8.093 22.052,-6.073 20.058,-7.097 18.014,-8.146 18.014,-8.546 20.058,-7.497 22.052,-6.473 22.201,-8.493"/></g><polygon points="21.756,-2.445 21.635,-0.802 21.545,0.419 19.412,0.262 19.502,-0.959 17.99,-1.07 15.934,-1.221 16.055,-2.864 18.111,-2.713 19.623,-2.602"/><polygon points="18.697,1.494 20.212,2.288 21.363,2.891 21.196,5.16 21.035,7.362 20.872,9.577 18.701,8.44 19.201,6.402 19.699,4.376 17.728,3.343"/><polygon points="16.767,5.177 15.843,6.942 11.978,4.918 12.903,3.153"/><polygon points="12.284,-1.05 14.497,0.11 11.978,4.918 9.765,3.758"/><polygon points="9.765,3.758 7.458,2.55 5.871,1.718 6.751,0.164 8.317,0.985 9.267,-0.745 10.071,-2.209 12.284,-1.05 11.509,0.429 10.594,2.177"/><polygon points="9.704,-5.045 10.697,-6.98 11.207,-7.972 12.275,-7.412 13.682,-6.675 13.155,-5.669 12.128,-3.709 10.75,-4.468"/><polygon points="12.128,-3.709 11.069,-1.686 8.549,-3.007 9.704,-5.045"/><polygon points="17.327,-12.828 18.656,-12.368 19.776,-11.98 18.638,-9.761 18.126,-8.765 17.082,-9.301 17.57,-10.251 16.303,-10.833"/><polygon points="16.713,-11.633 15.843,-9.937 12.972,-11.411 13.99,-13.394"/><polygon points="13.99,-13.394 14.778,-13.71 17.327,-12.828 16.713,-11.633"/><polygon points="12.188,-9.884 12.972,-11.411 15.274,-10.229 14.49,-8.702"/><polygon points="14.49,-8.702 13.499,-6.771 11.207,-7.972 12.188,-9.884"/><polygon points="18.014,-8.546 18.787,-10.053 19.776,-11.98 21.1,-11.522 20.515,-9.263 22.201,-8.493 22.052,-6.473 20.058,-7.497"/></g><g fill="#D6A36E" stroke="#4C5950" stroke-width="0.214"><g fill="#4C5950" stroke="#4C5950" stroke-width="0.214" stroke-linejoin="round"><polygon points="3.899,17.751 3.375,19.375 1.555,18.827 1.103,20.23 0.421,22.343 -1.024,21.495 -1.024,21.095 0.421,21.943 1.103,19.83 1.555,18.427 3.375,18.975 3.899,17.351"/><polygon points="-3.361,20.124 -4.318,19.562 -6.024,18.561 -6.024,18.161 -4.318,19.162 -3.361,19.724"/><polygon points="-2.209,16.552 -2.745,18.213 -3.361,20.124 -3.361,19.724 -2.745,17.813 -2.209,16.152"/><polygon points="0.404,17.065 -0.48,19.807 -1.024,21.495 -2.254,20.773 -3.361,20.124 -3.361,19.724 -2.254,20.373 -1.024,21.095 -0.48,19.407 0.404,16.665"/><polygon points="-6.024,18.561 -8.739,16.968 -8.739,16.568 -6.024,18.161"/><polygon points="-5.187,15.968 -6.024,18.561 -6.024,18.161 -5.187,15.568"/></g><polygon points="0.404,16.665 2.021,16.982 3.899,17.351 3.375,18.975 1.555,18.427 1.103,19.83 0.421,21.943 -1.024,21.095 -0.416,19.208 -0.012,17.955"/><polygon points="-3.361,19.724 -4.318,19.162 -6.024,18.161 -5.576,16.773 -5.187,15.568 -3.28,15.942 -2.209,16.152 -2.745,17.813"/><polygon points="-2.209,16.152 -0.971,16.395 0.404,16.665 -0.48,19.407 -1.024,21.095 -2.254,20.373 -3.361,19.724 -2.922,18.362"/><polygon points="-6.024,18.161 -8.739,16.568 -8.177,14.981 -5.187,15.568"/><g fill="#4C5950" stroke="#4C5950" stroke-width="0.214" stroke-linejoin="round"><polygon points="-7.602,28.092 -9.198,27.573 -10.459,27.164 -12.159,26.612 -12.159,26.212 -10.459,26.764 -9.198,27.173 -7.602,27.692"/><polygon points="-7.443,18.656 -8.155,20.664 -8.155,20.264 -7.443,18.256"/><polygon points="-6.968,21.283 -7.694,23.332 -8.476,25.536 -8.476,25.136 -7.694,22.932 -6.968,20.883"/><polygon points="-6.91,26.14 -7.602,28.092 -7.602,27.692 -6.91,25.74"/><polygon points="0.482,28.349 -0.201,30.468 -7.602,28.092 -7.602,27.692 -0.201,30.068 0.482,27.949"/><polygon points="-4.09,26.728 -5.709,26.153 -6.781,25.774 -6.781,25.374 -5.709,25.753 -4.09,26.328"/><polygon points="-2.298,21.675 -2.93,23.458 -3.6,25.346 -4.09,26.728 -4.09,26.328 -3.6,24.946 -2.93,23.058 -2.298,21.275"/><polygon points="1.849,24.109 1.102,26.428 -0.485,25.707 -2.067,24.988 -2.826,27.176 -4.09,26.728 -4.09,26.328 -2.826,26.776 -2.067,24.588 -0.485,25.307 1.102,26.028 1.849,23.709"/></g><polygon points="-7.602,27.692 -9.198,27.173 -10.459,26.764 -12.159,26.212 -11.38,24.015 -10.538,21.639 -9.755,19.431 -9.012,17.335 -7.443,18.256 -8.155,20.264 -6.968,20.883 -7.694,22.932 -8.476,25.136 -6.91,25.74"/><polygon points="0.482,27.949 -0.201,30.068 -7.602,27.692 -6.781,25.374"/><polygon points="-4.09,26.328 -5.709,25.753 -6.781,25.374 -6.24,23.85 -5.502,21.769 -4.805,19.804 -3.807,20.389 -2.298,21.275 -2.93,23.058 -3.6,24.946"/><polygon points="-2.298,21.275 -1.152,21.948 0.347,22.827 1.849,23.709 1.102,26.028 -0.485,25.307 -2.067,24.588 -2.826,26.776 -4.09,26.328 -3.278,24.038"/><g fill="#4C5950" stroke="#4C5950" stroke-width="0.214" stroke-linejoin="round"><polygon points="-5.813,32.886 -7.631,32.395 -7.631,31.995 -5.813,32.486"/><polygon points="-4.833,29.825 -5.813,32.886 -5.813,32.486 -4.833,29.425"/><polygon points="-3.969,33.384 -5.813,32.886 -5.813,32.486 -3.969,32.984"/><polygon points="-3.016,30.406 -3.969,33.384 -3.969,32.984 -3.016,30.006"/><polygon points="-0.446,31.229 -0.84,32.45 -1.368,34.086 -2.688,33.729 -3.969,33.384 -3.969,32.984 -2.688,33.329 -1.368,33.686 -0.84,32.05 -0.446,30.829"/><polygon points="-6.414,29.319 -7.181,31.259 -7.612,32.346 -9.528,31.724 -11.565,31.062 -12.236,33.211 -13.854,32.686 -13.854,32.286 -12.236,32.811 -11.565,30.662 -9.528,31.324 -7.612,31.946 -7.181,30.859 -6.414,28.919"/><polygon points="-11.868,36.16 -12.151,37.178 -15.356,38.097 -15.356,37.697 -12.151,36.778 -11.868,35.76"/><polygon points="-13.389,35.738 -14.607,35.4 -14.607,35 -13.389,35.338"/><polygon points="-12.651,33.077 -13.389,35.738 -13.389,35.338 -12.651,32.677"/><polygon points="-9.188,36.328 -10.713,36.765 -11.385,34.42 -11.385,34.02 -10.713,36.365 -9.188,35.928"/></g><polygon points="-5.813,32.486 -7.631,31.995 -6.414,28.919 -4.833,29.425"/><polygon points="-3.969,32.984 -5.813,32.486 -4.833,29.425 -3.016,30.006"/><polygon points="-3.016,30.006 -1.751,30.411 -0.446,30.829 -0.84,32.05 -1.368,33.686 -2.688,33.329 -3.969,32.984 -3.424,31.279"/><polygon points="-13.854,32.286 -13.251,30.115 -12.938,28.99 -12.381,26.981 -10.597,27.56 -8.441,28.26 -6.414,28.919 -7.181,30.859 -7.612,31.946 -9.528,31.324 -11.565,30.662 -12.236,32.811"/><polygon points="-11.868,35.76 -12.151,36.778 -15.356,37.697 -14.607,35"/><polygon points="-13.389,35.338 -14.607,35 -13.854,32.286 -12.651,32.677"/><polygon points="-9.188,35.928 -10.713,36.365 -11.385,34.02 -9.86,33.583"/><g fill="#4C5950" stroke="#4C5950" stroke-width="0.214" stroke-linejoin="round"><polygon points="12.079,26.138 11.545,30.384 8.902,29.731 8.902,29.331 11.545,29.984 12.079,25.738"/><polygon points="5.712,28.943 3.612,28.424 1.469,27.895 1.469,27.495 3.612,28.024 5.712,28.543"/><polygon points="6.824,24.444 6.408,26.126 6.139,27.218 5.712,28.943 5.712,28.543 6.139,26.818 6.408,25.726 6.824,24.044"/><polygon points="12.911,19.519 12.661,21.506 11.226,21.159 10.641,24.143 10.359,25.583 7.625,24.702 7.625,24.302 10.359,25.183 10.641,23.743 11.226,20.759 12.661,21.106 12.911,19.119"/><polygon points="5.152,23.905 3.828,23.477 2.981,23.205 2.981,22.805 3.828,23.077 5.152,23.505"/><polygon points="6.397,20.042 5.775,21.974 5.152,23.905 5.152,23.505 5.775,21.574 6.397,19.642"/><polygon points="9.511,18.852 8.87,20.84 4.226,19.343 4.226,18.943 8.87,20.44 9.511,18.452"/></g><polygon points="9.959,25.054 12.079,25.738 11.545,29.984 8.902,29.331"/><polygon points="5.712,28.543 3.612,28.024 1.469,27.495 2.049,25.697 2.416,24.558 2.981,22.805 4.922,23.43 6.824,24.044 6.408,25.726 6.139,26.818"/><polygon points="9.511,18.452 11.598,18.862 12.911,19.119 12.661,21.106 11.226,20.759 10.641,23.743 10.359,25.183 7.625,24.302 8.054,22.969 8.945,20.208"/><polygon points="5.152,23.505 3.828,23.077 2.981,22.805 3.604,20.874 4.226,18.943 5.073,19.215 6.397,19.642 5.775,21.574"/><polygon points="4.226,18.943 4.69,17.506 9.511,18.452 8.87,20.44"/></g><g fill="#D6A36E" stroke="#4C5950" stroke-width="0.214"><g fill="#4C5950" stroke="#4C5950" stroke-width="0.214" stroke-linejoin="round"><polygon points="-13.879,15.651 -14.889,18.5 -15.321,19.717 -18.522,18.582 -20.384,17.922 -20.384,17.522 -18.522,18.182 -15.321,19.317 -14.889,18.1 -13.879,15.251"/><polygon points="-15.321,19.717 -16.312,22.514 -17.222,25.079 -20.325,24.543 -22.478,24.171 -22.478,23.771 -20.325,24.143 -17.222,24.679 -16.312,22.114 -15.321,19.317"/></g><polygon points="-20.384,17.522 -19.917,16.311 -18.823,13.475 -17.006,14.128 -13.879,15.251 -14.889,18.1 -15.321,19.317 -18.522,18.182"/><polygon points="-15.321,19.317 -16.312,22.114 -17.222,24.679 -20.325,24.143 -22.478,23.771 -21.476,20.782 -19.361,21.327 -18.31,18.257"/><g fill="#4C5950" stroke="#4C5950" stroke-width="0.214" stroke-linejoin="round"><polygon points="-24.269,18.341 -24.684,20.874 -28.217,20.296 -28.217,19.896 -24.684,20.474 -24.269,17.941"/><polygon points="-24.684,20.874 -25.148,23.71 -28.648,23.106 -28.648,22.706 -25.148,23.31 -24.684,20.474"/><polygon points="-21.573,18.783 -23.274,24.033 -25.148,23.71 -25.148,23.31 -23.274,23.633 -21.573,18.383"/><polygon points="-26.066,15.191 -27.361,14.726 -27.361,14.326 -26.066,14.791"/><polygon points="-24.82,11.721 -26.066,15.191 -26.066,14.791 -24.82,11.321"/><polygon points="-22.497,12.556 -23.743,16.025 -26.066,15.191 -26.066,14.791 -23.743,15.625 -22.497,12.156"/><polygon points="-23.743,16.025 -24.558,18.294 -27.827,17.759 -27.827,17.359 -24.558,17.894 -23.743,15.625"/><polygon points="-19.576,13.605 -20.847,16.899 -23.69,15.877 -23.69,15.477 -20.847,16.499 -19.576,13.205"/><polygon points="-20.847,16.899 -21.573,18.783 -24.558,18.294 -24.558,17.894 -21.573,18.383 -20.847,16.499"/></g><polygon points="-28.217,19.896 -27.827,17.359 -24.269,17.941 -24.684,20.474"/><polygon points="-24.684,20.474 -25.148,23.31 -28.648,22.706 -28.217,19.896"/><polygon points="-24.269,17.941 -21.573,18.383 -23.274,23.633 -25.148,23.31"/><polygon points="-26.066,14.791 -27.361,14.326 -26.791,10.613 -24.82,11.321"/><polygon points="-24.82,11.321 -22.497,12.156 -23.743,15.625 -26.066,14.791"/><polygon points="-23.743,15.625 -24.558,17.894 -27.827,17.359 -27.361,14.326"/><polygon points="-23.69,15.477 -22.497,12.156 -19.576,13.205 -20.847,16.499"/><polygon points="-20.847,16.499 -21.573,18.383 -24.558,17.894 -23.69,15.477"/><g fill="#4C5950" stroke="#4C5950" stroke-width="0.214" stroke-linejoin="round"><polygon points="-23.439,5.913 -24.288,4.801 -25.577,3.112 -25.577,2.712 -24.288,4.401 -23.439,5.513"/><polygon points="-20.161,3.283 -21.823,4.617 -23.439,5.913 -23.439,5.513 -21.823,4.217 -20.161,2.883"/><polygon points="-18.612,5.214 -22.251,7.47 -23.439,5.913 -23.439,5.513 -22.251,7.07 -18.612,4.814"/><polygon points="-24.081,6.378 -24.459,8.839 -26.41,8.539 -26.41,8.139 -24.459,8.439 -24.081,5.978"/><polygon points="-12.763,12.505 -13.611,14.897 -18.701,13.069 -18.701,12.669 -13.611,14.497 -12.763,12.105"/><polygon points="-16.725,7.567 -18.701,13.069 -22.111,11.844 -22.111,11.444 -18.701,12.669 -16.725,7.167"/></g><polygon points="-23.439,5.513 -24.288,4.401 -25.577,2.712 -23.993,1.442 -22.364,0.136 -21.036,1.792 -20.161,2.883 -21.823,4.217"/><polygon points="-20.161,2.883 -18.612,4.814 -22.251,7.07 -23.439,5.513"/><polygon points="-26.41,8.139 -26.032,5.678 -24.081,5.978 -24.459,8.439"/><polygon points="-16.725,7.167 -12.763,12.105 -13.611,14.497 -18.701,12.669"/><polygon points="-18.612,4.814 -16.725,7.167 -18.701,12.669 -22.111,11.444"/></g><g fill="#D6A36E" stroke="#4C5950" stroke-width="0.214"><g fill="#4C5950" stroke="#4C5950" stroke-width="0.214" stroke-linejoin="round"><polygon points="-18.003,-15.315 -19.103,-14.033 -19.103,-14.433 -18.003,-15.715"/><polygon points="-16.068,-11.25 -17.264,-9.335 -18.792,-10.735 -20.549,-12.346 -22.376,-14.021 -22.376,-14.421 -20.549,-12.746 -18.792,-11.135 -17.264,-9.735 -16.068,-11.65"/><polygon points="-21.968,-9.272 -23.104,-10.993 -24.03,-12.395 -24.03,-12.795 -23.104,-11.393 -21.968,-9.672"/><polygon points="-19.789,-11.649 -20.72,-10.633 -21.968,-9.272 -21.968,-9.672 -20.72,-11.033 -19.789,-12.049"/><polygon points="-20.408,-6.91 -21.396,-8.405 -21.968,-9.272 -21.968,-9.672 -21.396,-8.805 -20.408,-7.31"/><polygon points="-18.621,-10.237 -19.953,-9.357 -19.953,-9.757 -18.621,-10.637"/><polygon points="-18.966,-7.862 -20.408,-6.91 -20.408,-7.31 -18.966,-8.262"/><polygon points="-14.219,-15.598 -15.332,-14.383 -16.088,-13.559 -17.154,-14.536 -18.531,-15.798 -18.531,-16.198 -17.154,-14.936 -16.088,-13.959 -15.332,-14.783 -14.219,-15.998"/><polygon points="-17.745,-16.595 -18.786,-17.55 -18.786,-17.95 -17.745,-16.995"/><polygon points="-12.568,-17.399 -13.408,-16.483 -14.219,-15.598 -15.428,-16.707 -15.428,-17.107 -14.219,-15.998 -13.408,-16.883 -12.568,-17.799"/><polygon points="-14.604,-17.573 -15.663,-18.537 -16.498,-17.688 -17.61,-18.707 -17.61,-19.107 -16.498,-18.088 -15.663,-18.937 -14.604,-17.973"/><polygon points="-14.3,-18.967 -15.282,-19.856 -15.885,-20.402 -15.885,-20.802 -15.282,-20.256 -14.3,-19.367"/><polygon points="-11.594,-21.628 -12.335,-20.9 -14.3,-18.967 -14.3,-19.367 -12.335,-21.3 -11.594,-22.028"/><polygon points="-9.697,-19.585 -10.779,-18.636 -12.676,-20.565 -12.676,-20.965 -10.779,-19.036 -9.697,-19.985"/><polygon points="-9.815,-11.913 -9.852,-9.501 -11.692,-9.529 -11.692,-9.929 -9.852,-9.901 -9.815,-12.313"/></g><polygon points="-22.376,-14.421 -20.791,-15.98 -19.585,-17.165 -18.003,-15.715 -19.103,-14.433 -17.479,-12.944 -16.068,-11.65 -17.264,-9.735 -18.792,-11.135 -20.549,-12.746"/><polygon points="-21.968,-9.672 -23.104,-11.393 -24.03,-12.795 -23.083,-13.726 -22.376,-14.421 -21.214,-13.356 -19.789,-12.049 -20.72,-11.033"/><polygon points="-20.408,-7.31 -21.396,-8.805 -21.968,-9.672 -20.525,-10.624 -19.194,-11.503 -18.621,-10.637 -19.953,-9.757 -18.966,-8.262"/><polygon points="-14.219,-15.998 -15.332,-14.783 -16.088,-13.959 -17.154,-14.936 -18.531,-16.198 -17.745,-16.995 -18.786,-17.95 -17.61,-19.107 -16.587,-18.17 -15.252,-16.945"/><polygon points="-17.61,-19.107 -16.763,-19.94 -15.885,-20.802 -14.798,-19.817 -13.751,-18.87 -12.568,-17.799 -13.408,-16.883 -14.219,-15.998 -15.428,-17.107 -14.604,-17.973 -15.663,-18.937 -16.498,-18.088"/><polygon points="-14.3,-19.367 -15.282,-20.256 -15.885,-20.802 -13.824,-22.829 -13.047,-23.593 -12.494,-22.997 -11.594,-22.028 -12.335,-21.3"/><polygon points="-12.676,-20.965 -11.594,-22.028 -9.697,-19.985 -10.779,-19.036"/><polygon points="-9.815,-12.313 -9.852,-9.901 -11.692,-9.929 -11.655,-12.342"/><g fill="#4C5950" stroke="#4C5950" stroke-width="0.214" stroke-linejoin="round"><polygon points="-13.591,-23.779 -15.469,-21.933 -16.946,-20.481 -18.798,-23.791 -20.829,-22.867 -20.829,-23.267 -18.798,-24.191 -16.946,-20.881 -15.469,-22.333 -13.591,-24.179"/><polygon points="-18.812,-18.647 -20.453,-17.033 -22.616,-22.055 -23.396,-23.867 -23.396,-24.267 -22.616,-22.455 -20.453,-17.433 -18.812,-19.047"/></g><polygon points="-15.705,-26.456 -15.145,-25.852 -13.591,-24.179 -15.469,-22.333 -16.946,-20.881 -18.798,-24.191 -20.829,-23.267 -18.812,-19.047 -20.453,-17.433 -22.616,-22.455 -23.396,-24.267 -21.557,-24.79 -19.466,-25.385 -17.81,-25.857"/><g fill="#4C5950" stroke="#4C5950" stroke-width="0.214" stroke-linejoin="round"><polygon points="-23.081,-21.111 -24.811,-20.366 -26.452,-19.659 -27.274,-21.064 -29.265,-20.323 -30.353,-21.972 -30.353,-22.372 -29.265,-20.723 -27.274,-21.464 -26.452,-20.059 -24.811,-20.766 -23.081,-21.511"/><polygon points="-26.291,-23.251 -27.077,-24.785 -27.077,-25.185 -26.291,-23.651"/><polygon points="-24.911,-25.36 -26.654,-24.897 -27.302,-27.335 -27.302,-27.735 -26.654,-25.297 -24.911,-25.76"/><polygon points="-21.065,-16.432 -22.305,-15.212 -23.304,-14.23 -24.159,-15.675 -25.499,-14.62 -26.32,-15.863 -26.32,-16.263 -25.499,-15.02 -24.159,-16.075 -23.304,-14.63 -22.305,-15.612 -21.065,-16.832"/><polygon points="-26.32,-15.863 -27.433,-17.549 -28.3,-18.863 -28.3,-19.263 -27.433,-17.949 -26.32,-16.263"/><polygon points="-22.038,-18.691 -23.213,-17.915 -24.44,-17.105 -26.32,-15.863 -26.32,-16.263 -24.44,-17.505 -23.213,-18.315 -22.038,-19.091"/></g><polygon points="-24.911,-25.76 -24.275,-24.285 -23.642,-22.814 -23.081,-21.511 -24.811,-20.766 -26.452,-20.059 -27.274,-21.464 -29.265,-20.723 -30.353,-22.372 -28.201,-23.049 -26.291,-23.651 -27.077,-25.185"/><polygon points="-27.302,-27.735 -25.882,-28.014 -24.911,-25.76 -26.654,-25.297"/><polygon points="-22.038,-19.091 -21.604,-18.084 -21.065,-16.832 -22.305,-15.612 -23.304,-14.63 -24.159,-16.075 -25.499,-15.02 -26.32,-16.263 -24.846,-17.236 -23.594,-18.063"/><polygon points="-26.32,-16.263 -27.433,-17.949 -28.3,-19.263 -26.008,-20.25 -24.513,-20.894 -23.081,-21.511 -22.624,-20.45 -22.038,-19.091 -23.213,-18.315 -24.44,-17.505"/><g fill="#4C5950" stroke="#4C5950" stroke-width="0.214" stroke-linejoin="round"><polygon points="-33.809,-7.959 -34.319,-6.463 -34.941,-4.637 -36.139,-4.669 -37.889,-4.715 -37.889,-5.115 -36.139,-5.069 -34.941,-5.037 -34.319,-6.863 -33.809,-8.359"/><polygon points="-27.443,-11.145 -28.736,-9.739 -30.77,-11.609 -30.77,-12.009 -28.736,-10.139 -27.443,-11.545"/><polygon points="-30.097,-13.585 -30.68,-11.874 -31.129,-10.555 -32.357,-10.973 -33.715,-11.436 -35.403,-12.011 -35.403,-12.411 -33.715,-11.836 -32.357,-11.373 -31.129,-10.955 -30.68,-12.274 -30.097,-13.985"/><polygon points="-21.08,-5.294 -22.247,-5.026 -23.702,-4.692 -25.085,-4.374 -26.427,-4.41 -26.427,-4.81 -25.085,-4.774 -23.702,-5.092 -22.247,-5.426 -21.08,-5.694"/><polygon points="-25.218,-5.302 -27.293,-6.136 -27.293,-6.536 -25.218,-5.702"/><polygon points="-26.273,-7.901 -28.103,-9.209 -28.103,-9.609 -26.273,-8.301"/></g><polygon points="-33.809,-8.359 -34.319,-6.863 -34.941,-5.037 -36.139,-5.069 -37.889,-5.115 -37.111,-7.398 -36.474,-9.267 -34.892,-8.728"/><polygon points="-29.477,-13.415 -27.443,-11.545 -28.736,-10.139 -30.77,-12.009"/><polygon points="-30.097,-13.985 -30.68,-12.274 -31.129,-10.955 -32.357,-11.373 -33.715,-11.836 -35.403,-12.411 -34.907,-13.867 -34.263,-15.757 -32.617,-15.057 -31.294,-14.494"/><polygon points="-27.443,-11.545 -25.454,-9.716 -22.926,-7.392 -21.08,-5.694 -22.247,-5.426 -23.702,-5.092 -25.085,-4.774 -26.427,-4.81 -25.218,-5.702 -27.293,-6.536 -26.273,-8.301 -28.103,-9.609"/><g fill="#4C5950" stroke="#4C5950" stroke-width="0.214" stroke-linejoin="round"><polygon points="-26.452,-14.611 -27.642,-13.825 -28.535,-13.236 -29.531,-14.152 -31.361,-15.835 -31.361,-16.235 -29.531,-14.552 -28.535,-13.636 -27.642,-14.225 -26.452,-15.011"/><polygon points="-31.361,-15.835 -32.821,-17.177 -33.446,-17.753 -33.446,-18.153 -32.821,-17.577 -31.361,-16.235"/><polygon points="-28.505,-17.72 -29.91,-16.792 -31.361,-15.835 -31.361,-16.235 -29.91,-17.192 -28.505,-18.12"/><polygon points="-23.35,-9.914 -24.07,-9.131 -25.681,-10.612 -25.681,-11.012 -24.07,-9.531 -23.35,-10.314"/><polygon points="-25.681,-10.612 -28.535,-13.236 -28.535,-13.636 -25.681,-11.012"/><polygon points="-24.593,-11.796 -25.681,-10.612 -25.681,-11.012 -24.593,-12.196"/></g><polygon points="-28.505,-18.12 -27.175,-16.107 -26.452,-15.011 -27.642,-14.225 -28.535,-13.636 -29.531,-14.552 -31.361,-16.235 -30.137,-17.043"/><polygon points="-31.361,-16.235 -32.821,-17.577 -33.446,-18.153 -32.596,-20.648 -31.771,-23.068 -30.792,-21.584 -28.505,-18.12 -29.91,-17.192"/><polygon points="-24.593,-12.196 -23.35,-10.314 -24.07,-9.531 -25.681,-11.012"/><polygon points="-25.681,-11.012 -28.535,-13.636 -26.452,-15.011 -24.593,-12.196"/></g><g stroke="#4C5950" stroke-width="0.8" stroke-linecap="butt"><polyline points="1.387,-21.95 1.464,-29.949"/><polyline points="-4.613,-22.008 -4.535,-30.008"/></g><g fill="#D6A36E" stroke="#4C5950" stroke-width="0.214"><g fill="#4C5950" stroke="#4C5950" stroke-width="0.214" stroke-linejoin="round"><polygon points="24.999,5.005 23.69,5.199 22.007,5.449 22.007,5.049 23.69,4.799 24.999,4.605"/><polygon points="28.703,4.455 26.395,4.798 24.999,5.005 24.764,3.423 24.462,1.391 24.462,0.991 24.764,3.023 24.999,4.605 26.395,4.398 28.703,4.055"/><polygon points="29.15,7.123 26.848,7.619 26.848,7.219 29.15,6.723"/><polygon points="27.242,8.926 25.605,9.345 24.083,9.735 23.416,8.359 22.007,5.449 22.007,5.049 23.416,7.959 24.083,9.335 25.605,8.945 27.242,8.526"/><polygon points="23.433,8.394 23.321,9.93 21.686,9.809 21.686,9.409 23.321,9.53 23.433,7.994"/><polygon points="30.082,12.677 28.178,12.154 27.979,10.972 26.08,10.788 25.829,9.288 25.829,8.888 26.08,10.388 27.979,10.572 28.178,11.754 30.082,12.277"/></g><polygon points="24.999,4.605 23.69,4.799 22.007,5.049 22.124,3.449 22.281,1.314 23.509,1.132 24.462,0.991 24.769,3.057"/><polygon points="24.462,0.991 25.833,0.787 28.098,0.451 28.438,2.478 28.703,4.055 26.395,4.398 24.999,4.605 24.764,3.023"/><polygon points="22.007,5.049 23.937,4.762 26.015,4.454 28.703,4.055 29.15,6.723 26.848,7.219 27.242,8.526 25.605,8.945 24.083,9.335 23.416,7.959"/><polygon points="21.686,9.409 21.799,7.874 23.433,7.994 23.321,9.53"/><polygon points="25.829,8.888 27.62,8.43 29.362,7.984 29.825,10.75 30.082,12.277 28.178,11.754 27.979,10.572 26.08,10.388"/><g fill="#4C5950" stroke="#4C5950" stroke-width="0.214" stroke-linejoin="round"><polygon points="33.589,13.642 32.676,13.391 30.932,12.911 30.621,11.058 30.366,9.535 30.366,9.135 30.621,10.658 30.932,12.511 32.676,12.991 33.589,13.242"/><polygon points="31.209,7.054 29.984,7.259 29.505,4.404 29.505,4.004 29.984,6.859 31.209,6.654"/></g><polygon points="33.589,13.242 32.676,12.991 30.932,12.511 30.621,10.658 30.366,9.135 31.984,8.864 32.831,8.721 33.173,10.76"/><polygon points="31.209,6.654 29.984,6.859 29.505,4.004 30.73,3.799"/></g><g fill="#D6A36E" stroke="#4C5950" stroke-width="0.214"><g fill="#4C5950" stroke="#4C5950" stroke-width="0.214" stroke-linejoin="round"><polygon points="13.909,32.131 12.33,30.552 12.33,30.152 13.909,31.731"/><polygon points="18.989,27.978 13.909,32.131 13.909,31.731 18.989,27.578"/><polygon points="15.7,33.922 13.909,32.131 13.909,31.731 15.7,33.522"/><polygon points="17.985,32.054 15.7,33.922 15.7,33.522 17.985,31.654"/><polygon points="19.737,34.196 17.666,35.888 15.7,33.922 15.7,33.522 17.666,35.488 19.737,33.796"/><polygon points="24.741,39.448 22.545,40.767 17.666,35.888 17.666,35.488 22.545,40.367 24.741,39.048"/><polygon points="41.343,19.869 39.948,21.008 38.247,22.399 36.156,24.108 35.027,22.727 35.027,22.327 36.156,23.708 38.247,21.999 39.948,20.608 41.343,19.469"/><polygon points="36.958,20.972 35.826,19.718 35.826,19.318 36.958,20.572"/><polygon points="36.981,16.649 36.256,19.286 31.043,17.853 31.043,17.453 36.256,18.886 36.981,16.249"/><polygon points="40.094,26.893 38.597,25.062 37.152,23.294 37.152,22.894 38.597,24.662 40.094,26.493"/><polygon points="44.683,23.142 41.787,25.51 40.094,26.893 40.094,26.493 41.787,25.11 44.683,22.742"/><polygon points="47.424,25.829 45.438,27.022 44.111,27.819 41.924,29.132 40.782,27.735 40.094,26.893 40.094,26.493 40.782,27.335 41.924,28.732 44.111,27.419 45.438,26.622 47.424,25.429"/><polygon points="17.871,21.253 16.569,19.66 15.161,17.937 15.161,17.537 16.569,19.26 17.871,20.853"/><polygon points="22.595,17.391 21.303,18.447 19.56,19.873 17.871,21.253 17.871,20.853 19.56,19.473 21.303,18.047 22.595,16.991"/><polygon points="28.98,14.449 28.452,16.371 28.096,17.663 26.798,17.306 25.4,16.921 25.4,16.521 26.798,16.906 28.096,17.263 28.452,15.971 28.98,14.049"/><polygon points="22.267,16.99 19.47,13.568 19.47,13.168 22.267,16.59"/><polygon points="26.283,13.707 22.267,16.99 22.267,16.59 26.283,13.307"/><polygon points="17.711,21.057 13.129,24.202 13.129,23.802 17.711,20.657"/></g><polygon points="13.909,31.731 12.33,30.152 17.583,25.858 18.989,27.578"/><polygon points="15.7,33.522 13.909,31.731 16.39,29.702 17.985,31.654"/><polygon points="17.985,31.654 19.737,33.796 17.666,35.488 15.7,33.522"/><polygon points="24.741,39.048 22.545,40.367 17.666,35.488 20.163,33.448"/><polygon points="38.477,16.66 39.817,17.974 41.343,19.469 39.948,20.608 38.247,21.999 36.156,23.708 35.027,22.327 36.958,20.572 35.826,19.318 37.283,17.857"/><polygon points="31.768,14.815 36.981,16.249 36.256,18.886 31.043,17.453"/><polygon points="40.094,26.493 38.597,24.662 37.152,22.894 38.698,21.631 40.215,23.339 42.983,21.076 44.683,22.742 41.787,25.11"/><polygon points="44.683,22.742 45.714,23.753 47.424,25.429 45.438,26.622 44.111,27.419 41.924,28.732 40.782,27.335 40.094,26.493 41.918,25.002 43.026,24.097"/><polygon points="17.871,20.853 16.569,19.26 15.161,17.537 16.701,15.976 18.292,14.363 19.47,13.168 21.094,15.155 22.595,16.991 21.303,18.047 19.56,19.473"/><polygon points="26.283,13.307 27.681,13.692 28.98,14.049 28.452,15.971 28.096,17.263 26.798,16.906 25.4,16.521 25.755,15.229"/><polygon points="22.267,16.59 19.47,13.168 20.815,11.804 26.283,13.307"/><polygon points="13.129,23.802 13.735,18.983 15.161,17.537 17.711,20.657"/></g><g fill="#D6A36E" stroke="#4C5950" stroke-width="0.214"><g fill="#4C5950" stroke="#4C5950" stroke-width="0.214" stroke-linejoin="round"><polygon points="-8.887,41.021 -10.567,40.274 -10.567,39.874 -8.887,40.621"/><polygon points="-8.363,39.84 -8.887,41.021 -8.887,40.621 -8.363,39.44"/><polygon points="-10.96,39.357 -11.407,37.797 -11.407,37.397 -10.96,38.957"/><polygon points="-7.76,36.751 -8.109,38.539 -10.96,39.357 -10.96,38.957 -8.109,38.139 -7.76,36.351"/></g><polygon points="-8.887,40.621 -10.567,39.874 -10.043,38.694 -8.363,39.44"/><polygon points="-10.96,38.957 -11.407,37.397 -7.76,36.351 -8.109,38.139"/><g fill="#4C5950" stroke="#4C5950" stroke-width="0.214" stroke-linejoin="round"><polygon points="5.805,32.862 4.819,37.194 2.528,36.673 2.528,36.273 4.819,36.794 5.805,32.462"/></g><polygon points="2.528,36.273 3.121,33.231 5.805,32.462 4.819,36.794"/><g fill="#4C5950" stroke="#4C5950" stroke-width="0.214" stroke-linejoin="round"><polygon points="10.128,33.734 8.333,34.248 7.773,32.298 7.773,31.898 8.333,33.848 10.128,33.334"/><polygon points="10.523,36.422 9.227,35.136 9.227,34.736 10.523,36.022"/><polygon points="13.796,33.149 10.523,36.422 10.523,36.022 13.796,32.749"/></g><polygon points="7.773,31.898 9.569,31.383 10.128,33.334 8.333,33.848"/><polygon points="10.523,36.022 9.227,34.736 11.792,30.745 13.796,32.749"/></g><g fill="#D6A36E" stroke="#4C5950" stroke-width="0.214"><g fill="#4C5950" stroke="#4C5950" stroke-width="0.214" stroke-linejoin="round"><polygon points="-41.409,23.16 -41.98,26.895 -42.775,27.135 -43.758,23.873 -43.758,23.473 -42.775,26.735 -41.98,26.495 -41.409,22.76"/></g><polygon points="-43.758,23.473 -41.409,22.76 -41.98,26.495 -42.775,26.735"/><g fill="#4C5950" stroke="#4C5950" stroke-width="0.214" stroke-linejoin="round"><polygon points="-41.999,7.76 -43.42,7.574 -45.37,7.318 -45.37,6.918 -43.42,7.174 -41.999,7.36"/><polygon points="-41.416,3.309 -41.672,5.262 -41.999,7.76 -41.999,7.36 -41.672,4.862 -41.416,2.909"/><polygon points="-40.214,-2.521 -40.604,0.46 -44.408,-0.037 -44.408,-0.437 -40.604,0.06 -40.214,-2.921"/><polygon points="-37.83,-0.272 -38.166,1.932 -40.753,1.594 -40.753,1.194 -38.166,1.532 -37.83,-0.672"/><polygon points="-37.458,-2.703 -37.83,-0.272 -40.463,-0.616 -40.463,-1.016 -37.83,-0.672 -37.458,-3.103"/><polygon points="-52.475,-0.911 -52.882,2.199 -55.638,2.561 -56.032,-0.444 -56.032,-0.844 -55.638,2.161 -52.882,1.799 -52.475,-1.311"/></g><polygon points="-41.999,7.36 -43.42,7.174 -45.37,6.918 -45.043,4.421 -44.788,2.468 -42.837,2.723 -41.416,2.909 -41.672,4.862"/><polygon points="-44.408,-0.437 -44.15,-2.404 -40.214,-2.921 -40.604,0.06"/><polygon points="-40.753,1.194 -40.463,-1.016 -37.83,-0.672 -38.166,1.532"/><polygon points="-40.463,-1.016 -40.214,-2.921 -37.458,-3.103 -37.83,-0.672"/><polygon points="-56.032,-0.844 -52.475,-1.311 -52.882,1.799 -55.638,2.161"/><g fill="#4C5950" stroke="#4C5950" stroke-width="0.214" stroke-linejoin="round"><polygon points="-36.988,25.391 -41.131,26.64 -41.131,26.24 -36.988,24.991"/><polygon points="-36.65,23.18 -36.988,25.391 -36.988,24.991 -36.65,22.78"/><polygon points="-34.764,24.721 -36.363,25.203 -36.759,23.889 -36.759,23.489 -36.363,24.803 -34.764,24.321"/><polygon points="-36.438,19.589 -36.695,21.274 -40.229,20.734 -40.229,20.334 -36.695,20.874 -36.438,19.189"/><polygon points="-29.09,20.712 -29.46,23.123 -34.764,24.721 -34.764,24.321 -29.46,22.723 -29.09,20.312"/><polygon points="-28.283,15.46 -28.555,17.229 -29.09,20.712 -30.835,20.445 -30.835,20.045 -29.09,20.312 -28.555,16.829 -28.283,15.06"/><polygon points="-30.301,16.962 -31.771,16.738 -31.771,16.338 -30.301,16.562"/><polygon points="-27.9,12.968 -28.283,15.46 -33.915,14.599 -33.915,14.199 -28.283,15.06 -27.9,12.568"/><polygon points="-33.409,11.287 -33.7,13.19 -33.967,14.943 -37.517,14.401 -39.222,14.141 -39.222,13.741 -37.517,14.001 -33.967,14.543 -33.7,12.79 -33.409,10.887"/></g><polygon points="-36.988,24.991 -41.131,26.24 -40.513,22.19 -36.65,22.78"/><polygon points="-34.764,24.321 -36.363,24.803 -36.759,23.489 -35.16,23.007"/><polygon points="-40.229,20.334 -39.972,18.649 -36.438,19.189 -36.695,20.874"/><polygon points="-34.036,19.556 -29.09,20.312 -29.46,22.723 -34.764,24.321"/><polygon points="-31.501,14.568 -30.03,14.793 -28.283,15.06 -28.555,16.829 -29.09,20.312 -30.835,20.045 -30.301,16.562 -31.771,16.338"/><polygon points="-33.915,14.199 -33.409,10.887 -27.9,12.568 -28.283,15.06"/><polygon points="-39.222,13.741 -38.898,11.62 -38.546,9.318 -36.879,9.827 -33.409,10.887 -33.7,12.79 -33.967,14.543 -37.517,14.001"/><g fill="#4C5950" stroke="#4C5950" stroke-width="0.214" stroke-linejoin="round"><polygon points="-26.001,0.604 -26.43,3.4 -32.138,2.523 -32.138,2.123 -26.43,3 -26.001,0.204"/><polygon points="-25.541,-2.386 -26.001,0.604 -31.708,-0.273 -31.708,-0.673 -26.001,0.204 -25.541,-2.786"/><polygon points="-26.43,3.4 -26.705,5.188 -29.4,4.774 -29.4,4.374 -26.705,4.788 -26.43,3"/><polygon points="-26.705,5.188 -27.025,7.271 -29.639,6.331 -29.639,5.931 -27.025,6.871 -26.705,4.788"/><polygon points="-29.639,6.331 -32.561,5.279 -32.561,4.879 -29.639,5.931"/><polygon points="-29.125,2.986 -29.639,6.331 -29.639,5.931 -29.125,2.586"/><polygon points="-31.36,-2.541 -31.724,-0.172 -34.211,-0.554 -34.211,-0.954 -31.724,-0.572 -31.36,-2.941"/><polygon points="-34.619,2.104 -37.32,1.689 -37.32,1.289 -34.619,1.704"/><polygon points="-33.895,-2.608 -34.619,2.104 -34.619,1.704 -33.895,-3.008"/><polygon points="-32.132,2.486 -32.561,5.279 -37.592,3.469 -37.592,3.069 -32.561,4.879 -32.132,2.086"/></g><polygon points="-26.001,0.204 -26.43,3 -32.138,2.123 -31.708,-0.673"/><polygon points="-31.708,-0.673 -31.36,-2.941 -25.541,-2.786 -26.001,0.204"/><polygon points="-29.4,4.374 -29.125,2.586 -26.43,3 -26.705,4.788"/><polygon points="-26.705,4.788 -27.025,6.871 -29.639,5.931 -29.4,4.374"/><polygon points="-29.639,5.931 -32.561,4.879 -32.138,2.123 -29.125,2.586"/><polygon points="-34.211,-0.954 -33.895,-3.008 -31.36,-2.941 -31.724,-0.572"/><polygon points="-34.619,1.704 -37.32,1.289 -36.652,-3.082 -33.895,-3.008"/><polygon points="-32.132,2.086 -32.561,4.879 -37.592,3.069 -37.32,1.289"/><g fill="#4C5950" stroke="#4C5950" stroke-width="0.214" stroke-linejoin="round"><polygon points="-27.149,8.077 -27.607,11.06 -27.778,12.169 -31.179,11.131 -31.179,10.731 -27.778,11.769 -27.607,10.66 -27.149,7.677"/><polygon points="-30.905,10.008 -33.187,9.281 -33.187,8.881 -30.905,9.608"/><polygon points="-32.258,6.238 -33.532,10.412 -36.328,9.559 -36.328,9.159 -33.532,10.012 -32.258,5.838"/></g><polygon points="-32.258,5.838 -30.169,6.59 -27.149,7.677 -27.607,10.66 -27.778,11.769 -31.179,10.731 -30.905,9.608 -33.187,8.881"/><polygon points="-35.011,4.848 -32.258,5.838 -33.532,10.012 -36.328,9.159"/></g><g fill="#D6A36E" stroke="#4C5950" stroke-width="0.214"><g fill="#4C5950" stroke="#4C5950" stroke-width="0.214" stroke-linejoin="round"><polygon points="-23.832,31.935 -25.207,34.312 -26.082,35.826 -27.138,35.296 -28.439,34.642 -28.439,34.242 -27.138,34.896 -26.082,35.426 -25.207,33.912 -23.832,31.535"/></g><polygon points="-26.507,30.394 -25.03,31.024 -23.832,31.535 -25.207,33.912 -26.082,35.426 -27.138,34.896 -28.439,34.242 -27.687,32.745"/><g fill="#4C5950" stroke="#4C5950" stroke-width="0.214" stroke-linejoin="round"><polygon points="-17.44,25.853 -17.973,27.774 -18.429,29.416 -20.185,28.928 -22.097,28.397 -22.097,27.997 -20.185,28.528 -18.429,29.016 -17.973,27.374 -17.44,25.453"/><polygon points="-18.429,29.416 -18.928,31.214 -19.411,32.952 -20.473,32.499 -20.473,32.099 -19.411,32.552 -18.928,30.814 -18.429,29.016"/><polygon points="-20.01,30.833 -22.527,29.947 -22.527,29.547 -20.01,30.433"/><polygon points="-21.209,25.202 -21.74,27.114 -22.169,28.657 -23.461,28.298 -24.85,27.913 -24.85,27.513 -23.461,27.898 -22.169,28.257 -21.74,26.714 -21.209,24.802"/><polygon points="-24.85,27.913 -27.201,27.26 -27.201,26.86 -24.85,27.513"/><polygon points="-23.965,24.726 -24.85,27.913 -24.85,27.513 -23.965,24.326"/><polygon points="-22.169,28.657 -22.515,29.906 -22.943,31.445 -23.948,31.016 -26.014,30.134 -26.014,29.734 -23.948,30.616 -22.943,31.045 -22.515,29.506 -22.169,28.257"/><polygon points="-26.014,30.134 -28.18,29.21 -28.18,28.81 -26.014,29.734"/><polygon points="-25.358,27.772 -26.014,30.134 -26.014,29.734 -25.358,27.372"/></g><polygon points="-22.097,27.997 -21.688,26.525 -21.209,24.802 -19.245,25.141 -17.44,25.453 -17.973,27.374 -18.429,29.016 -20.185,28.528"/><polygon points="-18.429,29.016 -18.928,30.814 -19.411,32.552 -20.473,32.099 -20.01,30.433 -22.527,29.547 -22.097,27.997 -19.531,28.71"/><polygon points="-23.965,24.326 -22.538,24.572 -21.209,24.802 -21.74,26.714 -22.169,28.257 -23.461,27.898 -24.85,27.513 -24.454,26.089"/><polygon points="-24.85,27.513 -27.201,26.86 -25.772,24.014 -23.965,24.326"/><polygon points="-25.358,27.372 -23.213,27.967 -22.169,28.257 -22.515,29.506 -22.943,31.045 -23.948,30.616 -26.014,29.734 -25.652,28.43"/><polygon points="-26.014,29.734 -28.18,28.81 -27.201,26.86 -25.358,27.372"/><g fill="#4C5950" stroke="#4C5950" stroke-width="0.214" stroke-linejoin="round"><polygon points="-41.858,29.464 -44.377,31.322 -46.108,28.975 -46.108,28.575 -44.377,30.922 -41.858,29.064"/></g><polygon points="-46.108,28.575 -42.98,27.632 -41.858,29.064 -44.377,30.922"/><g fill="#4C5950" stroke="#4C5950" stroke-width="0.214" stroke-linejoin="round"><polygon points="-31.817,29.244 -34.119,28.472 -34.119,28.072 -31.817,28.844"/><polygon points="-30.949,26.658 -31.817,29.244 -31.817,28.844 -30.949,26.258"/><polygon points="-28.249,27.564 -29.054,29.168 -29.485,30.026 -30.65,29.636 -31.817,29.244 -31.817,28.844 -30.65,29.236 -29.485,29.626 -29.054,28.768 -28.249,27.164"/><polygon points="-26.596,24.272 -27.379,25.833 -28.249,27.564 -30.189,26.914 -33.251,25.886 -33.251,25.486 -30.189,26.514 -28.249,27.164 -27.379,25.433 -26.596,23.872"/></g><polygon points="-31.817,28.844 -34.119,28.072 -33.251,25.486 -30.949,26.258"/><polygon points="-30.949,26.258 -29.598,26.712 -28.249,27.164 -29.054,28.768 -29.485,29.626 -30.65,29.236 -31.817,28.844 -31.514,27.942"/><polygon points="-33.251,25.486 -31.057,24.412 -29.078,23.443 -27.558,23.706 -26.596,23.872 -27.379,25.433 -28.249,27.164 -30.189,26.514"/><g fill="#4C5950" stroke="#4C5950" stroke-width="0.214" stroke-linejoin="round"><polygon points="-34.406,33.572 -36.07,32.737 -37.359,32.09 -37.359,31.69 -36.07,32.337 -34.406,33.172"/><polygon points="-32.536,29.847 -33.352,31.472 -34.406,33.572 -34.406,33.172 -33.352,31.072 -32.536,29.447"/></g><polygon points="-34.406,33.172 -36.07,32.337 -37.359,31.69 -36.641,29.754 -36.085,28.256 -34.535,28.776 -32.536,29.447 -33.352,31.072"/></g><g stroke="#99AA77" stroke-width="0.214" stroke-linecap="butt"><line x1="59.364" y1="28.425" x2="62.713" y2="30.249"/><line x1="54.365" y1="23.822" x2="64.355" y2="29.263"/><line x1="54.309" y1="21.911" x2="65.262" y2="27.877"/><line x1="54.657" y1="20.22" x2="66.169" y2="26.491"/><line x1="55.447" y1="18.77" x2="67.076" y2="25.104"/><line x1="56.236" y1="17.32" x2="67.983" y2="23.718"/><line x1="57.026" y1="15.87" x2="68.89" y2="22.332"/><line x1="57.816" y1="14.42" x2="69.797" y2="20.946"/><line x1="58.606" y1="12.97" x2="70.704" y2="19.56"/><line x1="59.396" y1="11.52" x2="71.611" y2="18.174"/><line x1="60.186" y1="10.07" x2="72.518" y2="16.787"/><line x1="60.975" y1="8.62" x2="73.425" y2="15.401"/><line x1="61.765" y1="7.17" x2="74.332" y2="14.015"/><line x1="62.555" y1="5.72" x2="75.239" y2="12.629"/><line x1="63.345" y1="4.27" x2="76.056" y2="11.194"/><line x1="65.039" y1="3.313" x2="76.158" y2="9.369"/><line x1="51.61" y1="20.067" x2="62.044" y2="0.912"/><line x1="50.078" y1="19.749" x2="60.723" y2="0.208"/><line x1="48.967" y1="18.66" x2="59.401" y2="-0.496"/><line x1="47.856" y1="17.571" x2="57.774" y2="-0.637"/><line x1="46.744" y1="16.481" x2="56.003" y2="-0.517"/><line x1="45.633" y1="15.392" x2="54.233" y2="-0.397"/><line x1="44.521" y1="14.303" x2="52.463" y2="-0.277"/><line x1="43.626" y1="12.816" x2="47.543" y2="5.624"/></g><g stroke="#99AA77" stroke-width="0.214" stroke-linecap="butt"><line x1="55.77" y1="40.198" x2="44.97" y2="30.254"/><line x1="55.678" y1="42.005" x2="42.996" y2="30.326"/><line x1="55.118" y1="43.379" x2="41.618" y2="30.949"/><line x1="54.346" y1="44.559" x2="40.375" y2="31.695"/><line x1="53.573" y1="45.739" x2="39.132" y2="32.441"/><line x1="52.801" y1="46.919" x2="37.889" y2="33.188"/><line x1="52.029" y1="48.099" x2="36.646" y2="33.934"/><line x1="51.257" y1="49.279" x2="35.403" y2="34.68"/><line x1="50.485" y1="50.459" x2="34.16" y2="35.427"/><line x1="49.713" y1="51.639" x2="32.917" y2="36.173"/><line x1="48.941" y1="52.819" x2="31.673" y2="36.919"/><line x1="48.169" y1="53.999" x2="30.43" y2="37.666"/><line x1="47.397" y1="55.179" x2="29.187" y2="38.412"/><line x1="46.624" y1="56.359" x2="27.944" y2="39.158"/><line x1="45.852" y1="57.539" x2="26.701" y2="39.905"/><line x1="45.08" y1="58.719" x2="25.67" y2="40.846"/><line x1="44.22" y1="59.817" x2="25.049" y2="42.165"/><line x1="43.02" y1="60.604" x2="24.915" y2="43.933"/><line x1="41.641" y1="61.225" x2="26.632" y2="47.405"/><line x1="38.039" y1="59.799" x2="28.35" y2="50.877"/><line x1="34.438" y1="58.374" x2="30.067" y2="54.349"/><g fill="#D6A36E" stroke="#4C5950" stroke-width="0.214"><g fill="#4C5950" stroke="#4C5950" stroke-width="0.214" stroke-linejoin="round"><polygon points="44.697,33.347 43.966,34.379 43.966,34.139 44.697,33.107"/><polygon points="44.932,35.064 44.275,35.99 43.309,35.305 42.677,36.197 40.923,34.953 40.923,34.713 42.677,35.957 43.309,35.065 44.275,35.75 44.932,34.824"/></g><polygon points="42.942,31.864 44.697,33.107 43.966,34.139 44.932,34.824 44.275,35.75 43.309,35.065 42.677,35.957 40.923,34.713 41.555,33.822 42.211,32.896"/></g></g></g></svg>